<?xml version="1.0" encoding="UTF-8"?>
<svg version="1.1" xmlns="http://www.w3.org/2000/svg" width="192" height="192">
<path d="M0 0 C1.37468697 -0.00855011 1.37468697 -0.00855011 2.77714539 -0.01727295 C4.71087512 -0.02666691 6.64462047 -0.03323445 8.57836914 -0.03710938 C11.46596118 -0.04672267 14.35281153 -0.07776178 17.24023438 -0.109375 C40.30722937 -0.24027134 66.6527224 1.62376108 84.36328125 18.25 C105.97320074 41.23927606 103.93283967 76.8928566 103.19921875 106.203125 C102.28653463 127.10980675 98.64383493 148.49438051 83.5078125 164.08984375 C64.65432816 181.34827866 36.85953239 182.42925502 12.63671875 182.390625 C11.93400848 182.39002075 11.23129822 182.3894165 10.5072937 182.38879395 C-13.78995828 182.33223658 -42.26132268 181.37983263 -60.84375 163.41796875 C-75.21024204 147.15888495 -78.89972709 124.54270951 -79.00390625 103.5 C-79.00960632 102.58212708 -79.0153064 101.66425415 -79.0211792 100.71856689 C-79.03058428 98.77886082 -79.03714521 96.83913908 -79.04101562 94.89941406 C-79.0506161 92.00295103 -79.08163857 89.10723133 -79.11328125 86.2109375 C-79.24672897 62.66307035 -77.26470346 36.41530765 -60.2421875 18.5234375 C-44.15032743 3.22973369 -21.40616723 0.10661964 0 0 Z " fill="#FBFCFC" transform="translate(83.80078125,7.796875)"/>
<path d="M0 0 C1.37468697 -0.00855011 1.37468697 -0.00855011 2.77714539 -0.01727295 C4.71087512 -0.02666691 6.64462047 -0.03323445 8.57836914 -0.03710938 C11.46596118 -0.04672267 14.35281153 -0.07776178 17.24023438 -0.109375 C40.30722937 -0.24027134 66.6527224 1.62376108 84.36328125 18.25 C105.97320074 41.23927606 103.93283967 76.8928566 103.19921875 106.203125 C102.28653463 127.10980675 98.64383493 148.49438051 83.5078125 164.08984375 C64.65432816 181.34827866 36.85953239 182.42925502 12.63671875 182.390625 C11.93400848 182.39002075 11.23129822 182.3894165 10.5072937 182.38879395 C-13.78995828 182.33223658 -42.26132268 181.37983263 -60.84375 163.41796875 C-75.21024204 147.15888495 -78.89972709 124.54270951 -79.00390625 103.5 C-79.00960632 102.58212708 -79.0153064 101.66425415 -79.0211792 100.71856689 C-79.03058428 98.77886082 -79.03714521 96.83913908 -79.04101562 94.89941406 C-79.0506161 92.00295103 -79.08163857 89.10723133 -79.11328125 86.2109375 C-79.24672897 62.66307035 -77.26470346 36.41530765 -60.2421875 18.5234375 C-44.15032743 3.22973369 -21.40616723 0.10661964 0 0 Z M-55.48828125 20.515625 C-71.2378732 38.81920484 -72.34408447 61.82685226 -72.24682617 84.93579102 C-72.23831683 88.00280063 -72.2672164 91.06793805 -72.29882812 94.13476562 C-72.37602608 116.06424762 -70.64884032 139.70466785 -54.8046875 156.29296875 C-38.05972503 172.32156919 -13.25241146 172.5771251 8.5546875 172.57373047 C11.66593252 172.57807848 14.77572549 172.61444083 17.88671875 172.65234375 C40.78234572 172.78023709 63.87343185 170.78584345 81.1328125 154.36328125 C93.85315343 140.9864066 96.32350233 119.38945389 96.40234375 101.6875 C96.40804382 100.67705627 96.4137439 99.66661255 96.4196167 98.62554932 C96.42903714 96.48735591 96.43558889 94.34914817 96.43945312 92.2109375 C96.44906345 89.00493462 96.48007557 85.79960013 96.51171875 82.59375 C96.62788614 60.14812339 95.14418177 38.24727121 79.88671875 20.515625 C61.51554112 4.70786751 38.48376699 3.66927437 15.30175781 3.81201172 C12.2020266 3.82811042 9.10359864 3.81205432 6.00390625 3.79296875 C-16.20836001 3.76904049 -37.96593244 5.4382551 -55.48828125 20.515625 Z " fill="#000000" transform="translate(83.80078125,7.796875)"/>
<path d="M0 0 C0.825 0.20625 1.65 0.4125 2.5 0.625 C3.0775 1.615 3.655 2.605 4.25 3.625 C6.08601974 6.72869698 6.08601974 6.72869698 8.36328125 7.09375 C13.74565087 7.17023127 18.97130862 6.09319941 24.21484375 4.96484375 C26.5 4.625 26.5 4.625 28.5 5.625 C28.35892253 7.08380109 28.21197585 8.54203551 28.0625 10 C27.98128906 10.81210938 27.90007812 11.62421875 27.81640625 12.4609375 C27.5 14.625 27.5 14.625 26.5 16.625 C25.84 16.625 25.18 16.625 24.5 16.625 C24.93542565 20.18097614 25.46313134 23.50287255 26.5 26.9375 C29.60700658 38.39458675 29.60700658 38.39458675 27.4453125 42.75 C26.20452205 44.43242772 24.85773987 46.03545088 23.5 47.625 C23.5 48.285 23.5 48.945 23.5 49.625 C24.49 50.12 24.49 50.12 25.5 50.625 C25.974375 51.45 26.44875 52.275 26.9375 53.125 C28.31319541 55.91655483 28.31319541 55.91655483 31.5 56.625 C32.16 53.985 32.82 51.345 33.5 48.625 C35.15 48.625 36.8 48.625 38.5 48.625 C37.93254837 53.3267421 37.2795919 57.94744862 36.5 62.625 C41.45 66.585 41.45 66.585 46.5 70.625 C46.005 72.11 46.005 72.11 45.5 73.625 C43.375 74.4375 43.375 74.4375 40.5 74.625 C37.3125 72.25 37.3125 72.25 34.5 69.625 C33.51 69.13 33.51 69.13 32.5 68.625 C32.355625 69.924375 32.21125 71.22375 32.0625 72.5625 C31.625 76.5 31.625 76.5 30.5 77.625 C28.85 77.625 27.2 77.625 25.5 77.625 C25.83 73.005 26.16 68.385 26.5 63.625 C25.51 63.295 24.52 62.965 23.5 62.625 C23.48582031 63.44484375 23.47164062 64.2646875 23.45703125 65.109375 C23.06404959 73.98863636 23.06404959 73.98863636 20.0625 77.375 C17.5 78.625 17.5 78.625 15.5 78.625 C15.5 79.615 15.5 80.605 15.5 81.625 C8.69743134 83.18392198 4.46345222 81.81690918 -1.5625 78.484375 C-3.5 77.25 -3.5 77.25 -6.5 74.625 C-6.5 72.975 -6.5 71.325 -6.5 69.625 C-10.13 69.295 -13.76 68.965 -17.5 68.625 C-18.49 70.935 -19.48 73.245 -20.5 75.625 C-25.375 74.75 -25.375 74.75 -26.5 73.625 C-26.04787049 67.16145845 -24.75958702 61.26372054 -22.9375 55.0625 C-22.70353516 54.24458984 -22.46957031 53.42667969 -22.22851562 52.58398438 C-21.65880046 50.59579473 -21.08033086 48.61011701 -20.5 46.625 C-16.10224957 46.54337122 -13.36210672 46.56520975 -9.5 48.625 C-6.83290931 48.79250414 -6.83290931 48.79250414 -4.5 48.625 C-5.221875 47.903125 -5.94375 47.18125 -6.6875 46.4375 C-16.82565789 36.29934211 -16.82565789 36.29934211 -16.9375 32.1875 C-16.8282452 25.88713996 -14.32378583 21.13730048 -11.5 15.625 C-10.92409559 14.31832613 -10.35931183 13.00661308 -9.8125 11.6875 C-5.38 1.345 -5.38 1.345 0 0 Z " fill="#E9E5E2" transform="translate(88.5,80.375)"/>
<path d="M0 0 C2.64 0 5.28 0 8 0 C10 3 10 3 10 7 C10.61746094 6.71125 11.23492187 6.4225 11.87109375 6.125 C17.59324546 3.61665952 22.72107718 1.77909834 29 3 C33.25854119 5.46049047 35.45366025 8.85040929 38 13 C37.525625 13.433125 37.05125 13.86625 36.5625 14.3125 C34.76313043 16.02309613 34.76313043 16.02309613 34 19 C34.721875 18.278125 35.44375 17.55625 36.1875 16.8125 C45.11111111 7.88888889 45.11111111 7.88888889 51.08984375 7.8671875 C53 8 53 8 55 9 C55 9.66 55 10.32 55 11 C55.66 11 56.32 11 57 11 C57 11.66 57 12.32 57 13 C57.66 13 58.32 13 59 13 C59 14.98 59 16.96 59 19 C57.35 19 55.7 19 54 19 C53.773125 18.360625 53.54625 17.72125 53.3125 17.0625 C52.14749104 14.72806339 52.14749104 14.72806339 49.375 14.25 C48.199375 14.12625 48.199375 14.12625 47 14 C49.10510281 18.09941074 51.02937033 19.76015762 55 22 C57.34168764 25.51253146 57.49623677 26.86469356 57 31 C55.5625 33.875 55.5625 33.875 53 36 C47.21239177 37.30761286 42.59049488 35.77330966 37.53125 32.97265625 C36 32 36 32 35 31 C33.58454508 30.82164709 32.16175336 30.70059786 30.73828125 30.60546875 C29.86623047 30.53650391 28.99417969 30.46753906 28.09570312 30.39648438 C26.26050281 30.25868337 24.42452318 30.13084772 22.58789062 30.01367188 C16.88327741 29.54072889 13.4575927 28.64443317 9 25 C9 26.32 9 27.64 9 29 C6.08277452 29.08103404 3.16780484 29.14051081 0.25 29.1875 C-0.575 29.21263672 -1.4 29.23777344 -2.25 29.26367188 C-8.34173232 29.33736219 -8.34173232 29.33736219 -11.5 27.71875 C-13.76001656 25.12914769 -14.25310648 22.2987797 -15 19 C-16.32 18.67 -17.64 18.34 -19 18 C-19 21.63 -19 25.26 -19 29 C-20.99954746 29.04254356 -23.00041636 29.04080783 -25 29 C-26 28 -26 28 -26.11352539 25.40795898 C-26.10828857 24.28204346 -26.10305176 23.15612793 -26.09765625 21.99609375 C-26.09443359 20.78115234 -26.09121094 19.56621094 -26.08789062 18.31445312 C-26.07951172 17.03505859 -26.07113281 15.75566406 -26.0625 14.4375 C-26.05798828 13.15423828 -26.05347656 11.87097656 -26.04882812 10.54882812 C-26.03699545 7.36583978 -26.02051068 4.18294238 -26 1 C-23.10259378 0.86460719 -20.21154379 0.76573171 -17.3125 0.6875 C-16.49587891 0.64560547 -15.67925781 0.60371094 -14.83789062 0.56054688 C-10.62567096 0.47527927 -8.54500738 0.64407682 -4.9375 3 C-2.38149538 6.95768457 -2.42065874 9.71872504 -2.6875 14.3125 C-2.71005859 15.05306641 -2.73261719 15.79363281 -2.75585938 16.55664062 C-2.8144185 18.37197357 -2.90409114 20.18625681 -3 22 C-2.34 22 -1.68 22 -1 22 C-0.67 14.74 -0.34 7.48 0 0 Z " fill="#CBCAD8" transform="translate(105,50)"/>
<path d="M0 0 C0.825 0.20625 1.65 0.4125 2.5 0.625 C3.0775 1.615 3.655 2.605 4.25 3.625 C6.08601974 6.72869698 6.08601974 6.72869698 8.36328125 7.09375 C13.74565087 7.17023127 18.97130862 6.09319941 24.21484375 4.96484375 C26.5 4.625 26.5 4.625 28.5 5.625 C28.35892253 7.08380109 28.21197585 8.54203551 28.0625 10 C27.98128906 10.81210938 27.90007812 11.62421875 27.81640625 12.4609375 C27.5 14.625 27.5 14.625 26.5 16.625 C25.84 16.625 25.18 16.625 24.5 16.625 C24.93542565 20.18097614 25.46313134 23.50287255 26.5 26.9375 C28.9548843 35.98988585 28.9548843 35.98988585 28.5 40.625 C26.35353811 43.96647791 23.41172938 45.36733735 19.625 46.4375 C18.92375 46.499375 18.2225 46.56125 17.5 46.625 C17.5 44.315 17.5 42.005 17.5 39.625 C16.015 39.13 16.015 39.13 14.5 38.625 C14.5 40.275 14.5 41.925 14.5 43.625 C12.85 43.295 11.2 42.965 9.5 42.625 C9.83 40.975 10.16 39.325 10.5 37.625 C11.49 37.625 12.48 37.625 13.5 37.625 C13.17 35.315 12.84 33.005 12.5 30.625 C15.14 30.955 17.78 31.285 20.5 31.625 C20.83 29.975 21.16 28.325 21.5 26.625 C19.52 26.625 17.54 26.625 15.5 26.625 C15.5 25.965 15.5 25.305 15.5 24.625 C13.68818595 24.43098367 11.87551468 24.24495625 10.0625 24.0625 C9.05316406 23.95808594 8.04382813 23.85367188 7.00390625 23.74609375 C6.17761719 23.70613281 5.35132812 23.66617188 4.5 23.625 C4.17 23.955 3.84 24.285 3.5 24.625 C1.16702567 24.66592937 -1.16705225 24.66741723 -3.5 24.625 C-3.4375 22.8125 -3.4375 22.8125 -2.5 20.625 C-0.19747517 19.55597061 2.1372026 18.55324183 4.5 17.625 C4.83 16.965 5.16 16.305 5.5 15.625 C4.84 15.625 4.18 15.625 3.5 15.625 C3.5 13.645 3.5 11.665 3.5 9.625 C2.51 9.625 1.52 9.625 0.5 9.625 C0.5 7.645 0.5 5.665 0.5 3.625 C-1.5819255 4.7880131 -1.5819255 4.7880131 -3.5 6.625 C-4.02039395 9.02926511 -4.02039395 9.02926511 -3.8125 11.625 C-3.78800781 12.49125 -3.76351562 13.3575 -3.73828125 14.25 C-3.57318805 16.77200782 -3.57318805 16.77200782 -2.5 19.625 C-4.15 19.625 -5.8 19.625 -7.5 19.625 C-7.5 17.315 -7.5 15.005 -7.5 12.625 C-8.16 12.625 -8.82 12.625 -9.5 12.625 C-9.83 13.615 -10.16 14.605 -10.5 15.625 C-9.5555219 9.20254892 -6.88225998 1.72056499 0 0 Z " fill="#CB8E52" transform="translate(88.5,80.375)"/>
<path d="M0 0 C1.91015625 0.1328125 1.91015625 0.1328125 3.91015625 1.1328125 C3.91015625 1.7928125 3.91015625 2.4528125 3.91015625 3.1328125 C4.57015625 3.1328125 5.23015625 3.1328125 5.91015625 3.1328125 C5.91015625 3.7928125 5.91015625 4.4528125 5.91015625 5.1328125 C6.57015625 5.1328125 7.23015625 5.1328125 7.91015625 5.1328125 C7.91015625 7.1128125 7.91015625 9.0928125 7.91015625 11.1328125 C6.26015625 11.1328125 4.61015625 11.1328125 2.91015625 11.1328125 C2.68328125 10.4934375 2.45640625 9.8540625 2.22265625 9.1953125 C1.05764729 6.86087589 1.05764729 6.86087589 -1.71484375 6.3828125 C-2.49859375 6.3003125 -3.28234375 6.2178125 -4.08984375 6.1328125 C-1.98474094 10.23222324 -0.06047342 11.89297012 3.91015625 14.1328125 C6.25184389 17.64534396 6.40639302 18.99750606 5.91015625 23.1328125 C4.47265625 26.0078125 4.47265625 26.0078125 1.91015625 28.1328125 C-3.87745198 29.44042536 -8.49934887 27.90612216 -13.55859375 25.10546875 C-15.08984375 24.1328125 -15.08984375 24.1328125 -16.08984375 23.1328125 C-18.41802339 22.76520519 -20.75168225 22.43039669 -23.08984375 22.1328125 C-22.75984375 21.4728125 -22.42984375 20.8128125 -22.08984375 20.1328125 C-21.42984375 20.1328125 -20.76984375 20.1328125 -20.08984375 20.1328125 C-19.75984375 18.1528125 -19.42984375 16.1728125 -19.08984375 14.1328125 C-20.12109375 14.6278125 -21.15234375 15.1228125 -22.21484375 15.6328125 C-25.63115195 17.08803506 -28.34350266 17.65555777 -32.08984375 17.1328125 C-34.55756581 13.4312294 -34.758134 10.42657735 -34.08984375 6.1328125 C-32.46484375 3.1328125 -32.46484375 3.1328125 -30.08984375 1.1328125 C-26.83984375 0.8203125 -26.83984375 0.8203125 -24.08984375 1.1328125 C-23.75984375 2.4528125 -23.42984375 3.7728125 -23.08984375 5.1328125 C-21.10984375 5.1328125 -19.12984375 5.1328125 -17.08984375 5.1328125 C-16.75984375 3.8128125 -16.42984375 2.4928125 -16.08984375 1.1328125 C-15.09984375 2.4528125 -14.10984375 3.7728125 -13.08984375 5.1328125 C-13.56421875 5.5659375 -14.03859375 5.9990625 -14.52734375 6.4453125 C-16.32671332 8.15590863 -16.32671332 8.15590863 -17.08984375 11.1328125 C-16.36796875 10.4109375 -15.64609375 9.6890625 -14.90234375 8.9453125 C-5.97873264 0.02170139 -5.97873264 0.02170139 0 0 Z " fill="#E8EBF1" transform="translate(156.08984375,57.8671875)"/>
<path d="M0 0 C0 1.98 0 3.96 0 6 C0.99 6 1.98 6 3 6 C3 7.98 3 9.96 3 12 C3.66 12 4.32 12 5 12 C4.67 12.99 4.34 13.98 4 15 C0.4375 16.1875 0.4375 16.1875 -3 17 C-3 17.99 -3 18.98 -3 20 C1.18517439 20.10597011 1.18517439 20.10597011 5.28125 19.375 C8.89410955 18.87667454 11.36960952 19.78986984 14.8125 20.9375 C15.97394531 21.31777344 17.13539062 21.69804688 18.33203125 22.08984375 C19.21246094 22.39019531 20.09289062 22.69054687 21 23 C21 24.65 21 26.3 21 28 C18.08517222 28.80967438 16.53886783 29.21845993 13.6875 28.0625 C13.130625 27.711875 12.57375 27.36125 12 27 C12.33 29.31 12.66 31.62 13 34 C12.01 34 11.02 34 10 34 C10 35.65 10 37.3 10 39 C11.32 39.33 12.64 39.66 14 40 C14 38.35 14 36.7 14 35 C15.32 35.33 16.64 35.66 18 36 C17.25 40.75 17.25 40.75 15 43 C12.67182036 43.36760731 10.3381615 43.70241581 8 44 C7.67 44.33 7.34 44.66 7 45 C0.53846154 45.35897436 0.53846154 45.35897436 -3 43 C-3 42.34 -3 41.68 -3 41 C-3.99 40.67 -4.98 40.34 -6 40 C-5.67 39.01 -5.34 38.02 -5 37 C-2.03 37 0.94 37 4 37 C3.67 36.01 3.34 35.02 3 34 C4.32 34 5.64 34 7 34 C7 32.68 7 31.36 7 30 C6.360625 29.855625 5.72125 29.71125 5.0625 29.5625 C3 29 3 29 2 28 C-3.98235897 27.58742352 -7.65196824 28.32598412 -13 31 C-14.66744874 22.80171036 -12.80303482 16.78353445 -10 9 C-9.34 9 -8.68 9 -8 9 C-8 11.31 -8 13.62 -8 16 C-6.35 16 -4.7 16 -3 16 C-3.66 15.01 -4.32 14.02 -5 13 C-5.30078125 10.625 -5.30078125 10.625 -5.3125 8 C-5.32925781 7.13375 -5.34601563 6.2675 -5.36328125 5.375 C-4.85299084 2.03890785 -3.53733596 0 0 0 Z " fill="#B0875C" transform="translate(89,84)"/>
<path d="M0 0 C3.92500436 2.30839774 6.55088018 4.65264053 8 9 C8.53358516 14.08217995 8.56704491 17.90501673 6.1875 22.5 C3.79762666 25.23128382 2.16081858 26.82687949 -1.48828125 27.37109375 C-10.05352209 27.57248945 -10.05352209 27.57248945 -13.625 24.6875 C-17.11400999 20.73940974 -17.34297519 17.47690202 -17.28515625 12.421875 C-16.8257084 8.5197152 -15.4128767 5.10546168 -13 2 C-8.89636725 -0.61296031 -4.71896809 -0.92793154 0 0 Z " fill="#AC7B67" transform="translate(101,133)"/>
<path d="M0 0 C2.91765891 -0.10806144 5.83131125 -0.18732877 8.75 -0.25 C9.9875 -0.30027344 9.9875 -0.30027344 11.25 -0.3515625 C17.361015 -0.45012726 17.361015 -0.45012726 20.55078125 1.796875 C22.65950007 5.00258232 22.46909902 7.24720782 22 11 C20.5 13.4375 20.5 13.4375 19 15 C20.18854293 17.57517635 21.5205702 19.76554442 23.125 22.125 C25 25 25 25 25 27 C21.9375 27.5625 21.9375 27.5625 18 27 C15.92626611 24.83161436 14.31988849 22.57376789 12.67578125 20.06640625 C10.99733852 17.57381016 10.99733852 17.57381016 7 17 C7 20.63 7 24.26 7 28 C5.00045254 28.04254356 2.99958364 28.04080783 1 28 C0 27 0 27 -0.11352539 24.40795898 C-0.10828857 23.28204346 -0.10305176 22.15612793 -0.09765625 20.99609375 C-0.09443359 19.78115234 -0.09121094 18.56621094 -0.08789062 17.31445312 C-0.07951172 16.03505859 -0.07113281 14.75566406 -0.0625 13.4375 C-0.05798828 12.15423828 -0.05347656 10.87097656 -0.04882812 9.54882812 C-0.03699545 6.36583978 -0.02051068 3.18294238 0 0 Z " fill="#AA7D65" transform="translate(79,51)"/>
<path d="M0 0 C0.66 0.33 1.32 0.66 2 1 C2 1.66 2 2.32 2 3 C2.66 3 3.32 3 4 3 C4 3.66 4 4.32 4 5 C4.66 5 5.32 5 6 5 C6 6.98 6 8.96 6 11 C4.35 11 2.7 11 1 11 C0.773125 10.360625 0.54625 9.72125 0.3125 9.0625 C-0.85250896 6.72806339 -0.85250896 6.72806339 -3.625 6.25 C-4.40875 6.1675 -5.1925 6.085 -6 6 C-3.89489719 10.09941074 -1.97062967 11.76015762 2 14 C4.34168764 17.51253146 4.49623677 18.86469356 4 23 C2.5625 25.875 2.5625 25.875 0 28 C-4.73605941 29.13372851 -8.84179693 28.52064268 -13 26 C-15.73608986 23.80733676 -16.48891923 22.14710236 -16.9375 18.6875 C-16.958125 17.470625 -16.97875 16.25375 -17 15 C-14.125 15.1875 -14.125 15.1875 -11 16 C-9.6875 18.5 -9.6875 18.5 -9 21 C-7.93354885 22.29633621 -7.93354885 22.29633621 -5.4375 22.0625 C-4.2309375 22.0315625 -4.2309375 22.0315625 -3 22 C-2.67 20.35 -2.34 18.7 -2 17 C-3.65 16.67 -5.3 16.34 -7 16 C-7 15.34 -7 14.68 -7 14 C-7.66 14 -8.32 14 -9 14 C-9 13.34 -9 12.68 -9 12 C-10.32 11.34 -11.64 10.68 -13 10 C-12.52039967 3.64529559 -12.52039967 3.64529559 -10.4375 1.0625 C-6.80695544 -0.52004507 -3.95200431 -0.25496802 0 0 Z " fill="#B36D48" transform="translate(158,58)"/>
<path d="M0 0 C0.33 0 0.66 0 1 0 C1.125 6.75 1.125 6.75 0 9 C-0.66 9 -1.32 9 -2 9 C-1.56457435 12.55597614 -1.03686866 15.87787255 0 19.3125 C2.4548843 28.36488585 2.4548843 28.36488585 2 33 C-0.14646189 36.34147791 -3.08827062 37.74233735 -6.875 38.8125 C-7.57625 38.874375 -8.2775 38.93625 -9 39 C-9 36.69 -9 34.38 -9 32 C-9.99 31.67 -10.98 31.34 -12 31 C-12 32.65 -12 34.3 -12 36 C-13.65 35.67 -15.3 35.34 -17 35 C-16.67 33.35 -16.34 31.7 -16 30 C-15.01 30 -14.02 30 -13 30 C-13.33 27.69 -13.66 25.38 -14 23 C-11.36 23.33 -8.72 23.66 -6 24 C-5.67 22.35 -5.34 20.7 -5 19 C-5.78375 18.896875 -6.5675 18.79375 -7.375 18.6875 C-10 18 -10 18 -12 15 C-11.58445308 11.1215621 -9.64740798 7.49250491 -8 4 C-7.34 3.67 -6.68 3.34 -6 3 C-6 5.97 -6 8.94 -6 12 C-3.64214682 11.10664203 -3.64214682 11.10664203 -2.875 7.9375 C-2.58625 6.968125 -2.2975 5.99875 -2 5 C-1.34 5 -0.68 5 0 5 C0 3.35 0 1.7 0 0 Z " fill="#DCB493" transform="translate(115,88)"/>
<path d="M0 0 C1.65 0 3.3 0 5 0 C4.43254837 4.7017421 3.7795919 9.32244862 3 14 C7.95 17.96 7.95 17.96 13 22 C12.67 22.99 12.34 23.98 12 25 C9.875 25.8125 9.875 25.8125 7 26 C3.8125 23.625 3.8125 23.625 1 21 C0.34 20.67 -0.32 20.34 -1 20 C-1.144375 21.299375 -1.28875 22.59875 -1.4375 23.9375 C-1.875 27.875 -1.875 27.875 -3 29 C-4.66617115 29.04063832 -6.33388095 29.042721 -8 29 C-7.85820313 28.07058594 -7.71640625 27.14117187 -7.5703125 26.18359375 C-6.52507363 19.19710409 -6.52507363 19.19710409 -8.19921875 12.546875 C-10.2793195 10.14947074 -12.15758115 8.42120942 -15 7 C-14.34 5.68 -13.68 4.36 -13 3 C-10.6875 2.75 -10.6875 2.75 -8 3 C-6.375 4.9375 -6.375 4.9375 -5 7 C-4.01 7.33 -3.02 7.66 -2 8 C-1.34 5.36 -0.68 2.72 0 0 Z " fill="#A66845" transform="translate(122,129)"/>
<path d="M0 0 C3.0625 1.625 3.0625 1.625 5 4 C5.3125 7.25 5.3125 7.25 5 10 C3.02 10 1.04 10 -1 10 C-1.33 9.01 -1.66 8.02 -2 7 C-6.25753664 6.55096823 -6.25753664 6.55096823 -9.875 8.5 C-11.52690908 12.17090906 -11.25914392 14.98326923 -11 19 C-10.67 19.66 -10.34 20.32 -10 21 C-5.2102679 21.23428313 -5.2102679 21.23428313 -1 19 C0.32 19 1.64 19 3 19 C2.6875 21.875 2.6875 21.875 2 25 C-1.71575751 27.47717167 -3.59986738 27.30345742 -8 27 C-12.00429981 26.04659528 -14.51351058 24.11348319 -17.05078125 20.83984375 C-18.86635092 17.3207766 -18.63793625 13.82761753 -18 10 C-16.5858269 6.36355488 -15.08610901 3.44316963 -12 1 C-7.93571045 -0.35476318 -4.2490219 -0.52833722 0 0 Z " fill="#AC7253" transform="translate(134,53)"/>
<path d="M0 0 C1.98 0 3.96 0 6 0 C5.30666681 3.16013968 4.18719368 5.95883943 2.9375 8.9375 C0.54798597 15.32103929 0.61451035 21.26463909 1 28 C-1.31 28 -3.62 28 -6 28 C-6.12375 27.01 -6.2475 26.02 -6.375 25 C-7.56561848 16.96764647 -8.71672571 11.82661943 -15.35546875 6.515625 C-15.89816406 6.01546875 -16.44085938 5.5153125 -17 5 C-17 4.01 -17 3.02 -17 2 C-13.8125 1.625 -13.8125 1.625 -10 2 C-7.91444836 3.79919351 -6.62066581 5.73106786 -5 8 C-4.34 8.33 -3.68 8.66 -3 9 C-2.01 6.03 -1.02 3.06 0 0 Z " fill="#AF7B5C" transform="translate(68,53)"/>
<path d="M0 0 C5.88464919 0.3869724 10.81292356 1.0822695 16 4 C16.9375 6.1875 16.9375 6.1875 17 8 C12.62065881 7.48041715 8.31196609 6.94324258 4 6 C4 7.65 4 9.3 4 11 C6.64 11.66 9.28 12.32 12 13 C12 14.65 12 16.3 12 18 C8.37 17.34 4.74 16.68 1 16 C0.855625 17.093125 0.71125 18.18625 0.5625 19.3125 C0 23 0 23 -1 26 C-2.65 25.67 -4.3 25.34 -6 25 C-5.52897524 16.20753786 -2.75783166 8.29384797 0 0 Z " fill="#A97661" transform="translate(68,129)"/>
<path d="M0 0 C5.61 0 11.22 0 17 0 C18.4783226 2.95664519 18.06032783 5.74229737 18 9 C17.01 9 16.02 9 15 9 C14.67 7.02 14.34 5.04 14 3 C11.24921116 2.08307039 9.64051087 1.89113917 6.8125 1.9375 C5.554375 1.958125 4.29625 1.97875 3 2 C3.33 4.31 3.66 6.62 4 9 C4.68707031 9.04898438 5.37414062 9.09796875 6.08203125 9.1484375 C6.98308594 9.22320312 7.88414063 9.29796875 8.8125 9.375 C10.15248047 9.47941406 10.15248047 9.47941406 11.51953125 9.5859375 C14 10 14 10 17 12 C17.70394612 13.31403276 18.36345658 14.6520257 19 16 C19.70125 17.03125 20.4025 18.0625 21.125 19.125 C23 22 23 22 23 24 C19.9375 24.5625 19.9375 24.5625 16 24 C13.96081048 21.82716381 12.38160863 19.57279979 10.7734375 17.06640625 C8.61389813 14.55011478 7.23871189 14.30397467 4 14 C4 16.97 4 19.94 4 23 C2.68 23 1.36 23 0 23 C0 15.41 0 7.82 0 0 Z " fill="#BB6C38" transform="translate(81,54)"/>
<path d="M0 0 C1.65 0.33 3.3 0.66 5 1 C4.67 4.3 4.34 7.6 4 11 C4.66 11 5.32 11 6 11 C6 11.66 6 12.32 6 13 C5.01 13 4.02 13 3 13 C3 14.65 3 16.3 3 18 C4.32 18.33 5.64 18.66 7 19 C7 17.35 7 15.7 7 14 C8.32 14.33 9.64 14.66 11 15 C10.25 19.75 10.25 19.75 8 22 C5.67182036 22.36760731 3.3381615 22.70241581 1 23 C0.67 23.33 0.34 23.66 0 24 C-6.46153846 24.35897436 -6.46153846 24.35897436 -10 22 C-10 21.34 -10 20.68 -10 20 C-10.99 19.67 -11.98 19.34 -13 19 C-12.505 17.515 -12.505 17.515 -12 16 C-9.03 16 -6.06 16 -3 16 C-3.33 15.01 -3.66 14.02 -4 13 C-2.68 13 -1.36 13 0 13 C0 11.68 0 10.36 0 9 C-1.32 8.67 -2.64 8.34 -4 8 C-4.33 6.02 -4.66 4.04 -5 2 C-3.35 2 -1.7 2 0 2 C0 1.34 0 0.68 0 0 Z " fill="#908B88" transform="translate(96,105)"/>
<path d="M0 0 C1.32 0 2.64 0 4 0 C4.66 2.97 5.32 5.94 6 9 C6.66 9 7.32 9 8 9 C8.99 11.31 9.98 13.62 11 16 C15.16138263 16.08159574 18.9472484 15.98248524 23 15 C23.33 16.65 23.66 18.3 24 20 C22.14375 20.680625 22.14375 20.680625 20.25 21.375 C18.00356846 22.20657378 15.96857292 23.01756219 13.875 24.1875 C11.24179801 25.3285542 8.83975693 25.05002282 6 25 C5.01249341 22.31531083 4.03487645 19.62766735 3.0625 16.9375 C2.64581055 15.80924805 2.64581055 15.80924805 2.22070312 14.65820312 C0.57917376 10.08960935 -0.6026984 5.84960204 -1 1 C-0.67 0.67 -0.34 0.34 0 0 Z " fill="#BA9588" transform="translate(30,62)"/>
<path d="M0 0 C0.66 0 1.32 0 2 0 C2 0.99 2 1.98 2 3 C2.66 3.33 3.32 3.66 4 4 C3.505 4.804375 3.01 5.60875 2.5 6.4375 C0.66087519 10.80542143 0.33557602 14.32314546 1 19 C2.29791982 21.89039626 2.29791982 21.89039626 4 24 C4.33 24.66 4.66 25.32 5 26 C2.50638429 24.79618552 0.31856917 23.54571278 -2 22 C-2 20.35 -2 18.7 -2 17 C-5.63 16.67 -9.26 16.34 -13 16 C-13.99 18.31 -14.98 20.62 -16 23 C-17.32 22.67 -18.64 22.34 -20 22 C-19.01 22 -18.02 22 -17 22 C-16.34 18.7 -15.68 15.4 -15 12 C-13.55625 12.144375 -12.1125 12.28875 -10.625 12.4375 C-9.40683594 12.55931641 -9.40683594 12.55931641 -8.1640625 12.68359375 C-6 13 -6 13 -4 14 C-4 12.35 -4 10.7 -4 9 C-4.94875 8.855625 -5.8975 8.71125 -6.875 8.5625 C-10 8 -10 8 -12 7 C-12 5.35 -12 3.7 -12 2 C-10.58297487 2.14230808 -9.1663904 2.28900746 -7.75 2.4375 C-6.56664063 2.55931641 -6.56664063 2.55931641 -5.359375 2.68359375 C-3.17635361 2.97634993 -1.1226818 3.42064419 1 4 C0.67 2.68 0.34 1.36 0 0 Z " fill="#CFCAD6" transform="translate(84,133)"/>
<path d="M0 0 C0.99 0.66 1.98 1.32 3 2 C3.3984375 4.53125 3.3984375 4.53125 3.375 7.5 C3.38273437 8.4796875 3.39046875 9.459375 3.3984375 10.46875 C3.26695313 11.3040625 3.13546875 12.139375 3 13 C-0.70415293 15.46943529 -2.62144505 15.46913089 -7 15 C-8.9375 13.5625 -8.9375 13.5625 -10 11 C-10.38422467 7.95326075 -10.59528094 5.02309339 -10 2 C-6.31282562 -0.45811625 -4.35654296 -0.31118164 0 0 Z " fill="#EFEFF1" transform="translate(100,139)"/>
<path d="M0 0 C0.825 0.20625 1.65 0.4125 2.5 0.625 C2.995 1.615 3.49 2.605 4 3.625 C6.19210362 6.94842444 6.19210362 6.94842444 9.640625 7.0234375 C12.94454573 7.00198347 16.20644472 6.88201154 19.5 6.625 C16.47560921 9.20616111 14.63910661 10.58558646 10.75 11.6875 C9.6775 11.996875 8.605 12.30625 7.5 12.625 C7.17 13.615 6.84 14.605 6.5 15.625 C5.51 15.625 4.52 15.625 3.5 15.625 C3.5 13.645 3.5 11.665 3.5 9.625 C2.51 9.625 1.52 9.625 0.5 9.625 C0.5 7.645 0.5 5.665 0.5 3.625 C-1.5819255 4.7880131 -1.5819255 4.7880131 -3.5 6.625 C-4.02039395 9.02926511 -4.02039395 9.02926511 -3.8125 11.625 C-3.78800781 12.49125 -3.76351562 13.3575 -3.73828125 14.25 C-3.57318805 16.77200782 -3.57318805 16.77200782 -2.5 19.625 C-4.15 19.625 -5.8 19.625 -7.5 19.625 C-7.5 17.315 -7.5 15.005 -7.5 12.625 C-8.16 12.625 -8.82 12.625 -9.5 12.625 C-9.83 13.615 -10.16 14.605 -10.5 15.625 C-9.5555219 9.20254892 -6.88225998 1.72056499 0 0 Z " fill="#C8B49D" transform="translate(88.5,80.375)"/>
<path d="M0 0 C0.33 0 0.66 0 1 0 C1.125 6.75 1.125 6.75 0 9 C-0.66 9 -1.32 9 -2 9 C-1.55110117 12.6660071 -0.97794242 16.07525528 0.0625 19.625 C0.89927404 22.63738655 1.18742394 24.90750499 1 28 C0.34 28 -0.32 28 -1 28 C-1.33 28.66 -1.66 29.32 -2 30 C-2 28.35 -2 26.7 -2 25 C-3.32 24.67 -4.64 24.34 -6 24 C-5.67 22.35 -5.34 20.7 -5 19 C-5.78375 18.896875 -6.5675 18.79375 -7.375 18.6875 C-10 18 -10 18 -12 15 C-11.58445308 11.1215621 -9.64740798 7.49250491 -8 4 C-7.34 3.67 -6.68 3.34 -6 3 C-6 5.97 -6 8.94 -6 12 C-3.64214682 11.10664203 -3.64214682 11.10664203 -2.875 7.9375 C-2.58625 6.968125 -2.2975 5.99875 -2 5 C-1.34 5 -0.68 5 0 5 C0 3.35 0 1.7 0 0 Z " fill="#D4B396" transform="translate(115,88)"/>
<path d="M0 0 C1.98 0 3.96 0 6 0 C6 8.58 6 17.16 6 26 C4.02 26 2.04 26 0 26 C0 17.42 0 8.84 0 0 Z " fill="#AE7658" transform="translate(106,52)"/>
<path d="M0 0 C1.65 0 3.3 0 5 0 C4.5020163 3.73487777 4.12508244 5.81237635 2 9 C1.50584921 10.64716929 1.01649862 12.29622734 0.5703125 13.95703125 C-0.66057269 18.36629805 -1.94958734 22.89917467 -4 27 C-4.66 27 -5.32 27 -6 27 C-6 25.02 -6 23.04 -6 21 C-5.34 21 -4.68 21 -4 21 C-4 18.36 -4 15.72 -4 13 C-4.66 13 -5.32 13 -6 13 C-6 12.34 -6 11.68 -6 11 C-6.639375 10.7525 -7.27875 10.505 -7.9375 10.25 C-10 9 -10 9 -10.75 6.875 C-10.8325 6.25625 -10.915 5.6375 -11 5 C-7.65626525 5.55728913 -4.96687001 6.35173889 -2 8 C-1.34 5.36 -0.68 2.72 0 0 Z " fill="#B1673A" transform="translate(122,129)"/>
<path d="M0 0 C0 0.33 0 0.66 0 1 C-5.94 1 -11.88 1 -18 1 C-17.67 9.91 -17.34 18.82 -17 28 C-15.02 28.33 -13.04 28.66 -11 29 C-11 25.37 -11 21.74 -11 18 C-9.35 18.33 -7.7 18.66 -6 19 C-6 19.99 -6 20.98 -6 22 C-7.32 21.01 -8.64 20.02 -10 19 C-9.93993922 20.45947705 -9.8511311 21.91779272 -9.75 23.375 C-9.70359375 24.18710938 -9.6571875 24.99921875 -9.609375 25.8359375 C-9.2077908 28.18838927 -9.2077908 28.18838927 -6.953125 29.2890625 C-6.30859375 29.52367188 -5.6640625 29.75828125 -5 30 C-5.33 30.66 -5.66 31.32 -6 32 C-6.78375 31.95875 -7.5675 31.9175 -8.375 31.875 C-11.16116119 31.71271266 -11.16116119 31.71271266 -13 34 C-13 32.68 -13 31.36 -13 30 C-13.804375 30.020625 -14.60875 30.04125 -15.4375 30.0625 C-18 30 -18 30 -19 29 C-19.15764405 27.22130274 -19.25100677 25.43681524 -19.31640625 23.65234375 C-19.35830078 22.57275391 -19.40019531 21.49316406 -19.44335938 20.38085938 C-19.48267578 19.24455078 -19.52199219 18.10824219 -19.5625 16.9375 C-19.60568359 15.79732422 -19.64886719 14.65714844 -19.69335938 13.48242188 C-19.79982839 10.65507805 -19.90184207 7.82764262 -20 5 C-22.29113732 7.1907039 -23.6975667 9.09457188 -25 12 C-25.33 11.34 -25.66 10.68 -26 10 C-25.06421005 7.64018187 -24.06652192 5.30368736 -23 3 C-24.98 3 -26.96 3 -29 3 C-29 2.34 -29 1.68 -29 1 C-19.33960055 -0.26693763 -9.72278418 -0.08984092 0 0 Z " fill="#DADAE1" transform="translate(97,50)"/>
<path d="M0 0 C0.33 1.32 0.66 2.64 1 4 C-1.64 4 -4.28 4 -7 4 C-7 5.32 -7 6.64 -7 8 C-4.69 8.33 -2.38 8.66 0 9 C0 8.34 0 7.68 0 7 C0.66 7 1.32 7 2 7 C1.814375 7.9075 1.62875 8.815 1.4375 9.75 C1.04265379 12.68314324 1.05308428 14.2644657 2 17 C1.67 16.34 1.34 15.68 1 15 C-1.55040159 14.49283263 -1.55040159 14.49283263 -4.5 14.3125 C-6.00046875 14.18294922 -6.00046875 14.18294922 -7.53125 14.05078125 C-8.3459375 14.03402344 -9.160625 14.01726562 -10 14 C-10.33 14.33 -10.66 14.66 -11 15 C-13.33297433 15.04092937 -15.66705225 15.04241723 -18 15 C-17.9375 13.1875 -17.9375 13.1875 -17 11 C-15.88625 10.54625 -14.7725 10.0925 -13.625 9.625 C-9.77260602 8.36211349 -9.77260602 8.36211349 -8.5 4.9375 C-7 2 -7 2 -3.3125 0.625 C-2.219375 0.41875 -1.12625 0.2125 0 0 Z " fill="#E4AF7B" transform="translate(103,90)"/>
<path d="M0 0 C5.04751785 -0.61806341 8.88947134 -0.66397665 13.0625 2.5 C15.7613184 5.16124785 15.99536199 5.97078056 16.625 9.9375 C16.26152264 14.03847282 14.8294099 17.34118019 13 21 C12.01 21 11.02 21 10 21 C10.03480469 19.94039062 10.06960937 18.88078125 10.10546875 17.7890625 C10.13360399 16.40105748 10.16090443 15.01303537 10.1875 13.625 C10.21263672 12.92632812 10.23777344 12.22765625 10.26367188 11.5078125 C10.32978561 9.23252323 10.32978561 9.23252323 10 6 C7.09907498 4.06604999 6.10325263 3.69868059 2.8125 3.375 C1.554375 3.25125 0.29625 3.1275 -1 3 C-0.67 2.01 -0.34 1.02 0 0 Z " fill="#AD6943" transform="translate(92,135)"/>
<path d="M0 0 C1.65 0.33 3.3 0.66 5 1 C5.33 2.32 5.66 3.64 6 5 C7.65 5.33 9.3 5.66 11 6 C10.01 7.485 10.01 7.485 9 9 C6.375 9.1875 6.375 9.1875 4 9 C4 10.32 4 11.64 4 13 C2.0085944 13.38133299 0.00720923 13.71325582 -2 14 C-3 13 -3 13 -3.25 9.25 C-3.22237076 5.40953533 -2.33942004 3.11922672 0 0 Z " fill="#F6FAFA" transform="translate(127,60)"/>
<path d="M0 0 C2.69069244 1.68904781 4.84678764 3.67369983 7 6 C6.67 6.66 6.34 7.32 6 8 C5.195625 7.175 4.39125 6.35 3.5625 5.5 C0.07081235 2.52746015 -2.79502351 2.56736934 -7.2421875 2.82421875 C-7.82226562 2.88222656 -8.40234375 2.94023437 -9 3 C-9.33 3.66 -9.66 4.32 -10 5 C-7.36 5 -4.72 5 -2 5 C-2 5.33 -2 5.66 -2 6 C-4.97 6.66 -7.94 7.32 -11 8 C-11 10.97 -11 13.94 -11 17 C-11.33 17 -11.66 17 -12 17 C-12.66 14.69 -13.32 12.38 -14 10 C-14 14.29 -14 18.58 -14 23 C-16 22 -16 22 -17 19 C-17.75848049 12.69590803 -16.9779759 7.11980231 -13 2 C-8.90687463 -0.60626981 -4.70707824 -0.94773387 0 0 Z " fill="#A57A6A" transform="translate(101,133)"/>
<path d="M0 0 C-0.33 0.66 -0.66 1.32 -1 2 C-0.38125 2.2475 0.2375 2.495 0.875 2.75 C3.35068687 4.20628639 3.95125002 5.37812506 5 8 C4.67 8.33 4.34 8.66 4 9 C3.8945368 10.9364215 3.8156216 12.87431928 3.75 14.8125 C3.32804873 20.62989374 3.32804873 20.62989374 0.5625 23.75 C-2 25 -2 25 -4 25 C-4 25.99 -4 26.98 -4 28 C-10.05525768 29.38766322 -13.32010626 28.49118146 -19 26 C-16.38073273 24.69036636 -14.6007974 25.07654251 -11.6875 25.25 C-7.41927592 25.30594003 -6.39796682 25.30245478 -2.875 22.625 C0.56431242 17.80996261 0.52260233 13.81280487 0 8 C-1.47908836 4.68965938 -3.3226891 2.42232891 -6 0 C-2.25 -1.125 -2.25 -1.125 0 0 Z " fill="#D3D2DA" transform="translate(108,134)"/>
<path d="M0 0 C3.0625 1.625 3.0625 1.625 5 4 C5.3125 7.25 5.3125 7.25 5 10 C3.02 10 1.04 10 -1 10 C-1.33 9.01 -1.66 8.02 -2 7 C-4.832168 6.66551741 -4.832168 6.66551741 -8 7 C-10.37719693 8.87501931 -10.37719693 8.87501931 -12 11 C-11.35455571 7.51460083 -9.89865603 4.97180943 -8 2 C-8.78375 2.515625 -9.5675 3.03125 -10.375 3.5625 C-11.24125 4.036875 -12.1075 4.51125 -13 5 C-13.66 4.67 -14.32 4.34 -15 4 C-10.82519587 -0.57240452 -5.89616128 -0.7331479 0 0 Z " fill="#A8867C" transform="translate(134,53)"/>
<path d="M0 0 C0.97858674 3.05808355 0.97730101 4.8331506 0 7.875 C-1.03215746 11.54948057 -0.93743961 14.25024158 0 18 C0.825 17.505 1.65 17.01 2.5 16.5 C6.75488188 14.67647919 9.42308671 14.76326311 14 15 C14.33 15.66 14.66 16.32 15 17 C11.37 17.33 7.74 17.66 4 18 C3.731875 18.969375 3.46375 19.93875 3.1875 20.9375 C2.795625 21.948125 2.40375 22.95875 2 24 C1.01 24.33 0.02 24.66 -1 25 C-3.47425886 23.29894704 -4.81633985 21.87604266 -5.44140625 18.89453125 C-5.79590437 11.70165005 -3.33184373 6.25910643 0 0 Z " fill="#C8AB90" transform="translate(77,96)"/>
<path d="M0 0 C0.53625 0.226875 1.0725 0.45375 1.625 0.6875 C1.295 2.3375 0.965 3.9875 0.625 5.6875 C-0.44041016 5.99494141 -0.44041016 5.99494141 -1.52734375 6.30859375 C-2.90599609 6.71271484 -2.90599609 6.71271484 -4.3125 7.125 C-5.68728516 7.52525391 -5.68728516 7.52525391 -7.08984375 7.93359375 C-9.3152493 8.47776051 -9.3152493 8.47776051 -10.375 9.6875 C-12.37458364 9.72830783 -14.37545254 9.73004356 -16.375 9.6875 C-16.375 7.3775 -16.375 5.0675 -16.375 2.6875 C-14.580625 2.7803125 -14.580625 2.7803125 -12.75 2.875 C-7.9761305 2.90873759 -4.44867383 -0.58535182 0 0 Z " fill="#A68273" transform="translate(52.375,77.3125)"/>
<path d="M0 0 C0.18306132 4.66806362 -0.28772802 7.71932005 -2 12 C-2.34272137 16.65926298 -2.34272137 16.65926298 -1 21 C-2.9375 20.25 -2.9375 20.25 -5 19 C-6.48605399 15.44639264 -5.63240406 12.84487763 -4.5625 9.25 C-4.13130859 7.77273437 -4.13130859 7.77273437 -3.69140625 6.265625 C-3.46324219 5.51796875 -3.23507813 4.7703125 -3 4 C-4.65 4 -6.3 4 -8 4 C-8.144375 4.94875 -8.28875 5.8975 -8.4375 6.875 C-9 10 -9 10 -10 12 C-11.875 11.6875 -11.875 11.6875 -14 11 C-14.66 10.01 -15.32 9.02 -16 8 C-14.35 7.67 -12.7 7.34 -11 7 C-10.34 5.02 -9.68 3.04 -9 1 C-1.125 0 -1.125 0 0 0 Z " fill="#DFE7F0" transform="translate(130,125)"/>
<path d="M0 0 C2.32319452 2.08286405 2.94910155 2.66552446 3.4375 5.875 C2.87557382 9.88875841 2.13305927 11.40185329 -1 14 C-5.73605941 15.13372851 -9.84179693 14.52064268 -14 12 C-16.73608986 9.80733676 -17.48891923 8.14710236 -17.9375 4.6875 C-17.958125 3.470625 -17.97875 2.25375 -18 1 C-15.125 1.1875 -15.125 1.1875 -12 2 C-10.6875 4.4375 -10.6875 4.4375 -10 7 C-9.67 7.66 -9.34 8.32 -9 9 C-9.99 9 -10.98 9 -12 9 C-11.67 9.66 -11.34 10.32 -11 11 C-5.16319127 12.37630292 -5.16319127 12.37630292 0 10 C0.36416047 7.56306689 0.36416047 7.56306689 0.1875 4.875 C0.16042969 3.96492188 0.13335937 3.05484375 0.10546875 2.1171875 C0.07066406 1.41851562 0.03585938 0.71984375 0 0 Z " fill="#A67552" transform="translate(159,72)"/>
<path d="M0 0 C6.04801071 0.54981916 11.30601106 1.90429574 17 4 C17 5.65 17 7.3 17 9 C14.08517222 9.80967438 12.53886783 10.21845993 9.6875 9.0625 C9.130625 8.711875 8.57375 8.36125 8 8 C8 9.65 8 11.3 8 13 C7.67 13 7.34 13 7 13 C7.33 9.7 7.66 6.4 8 3 C6.35 2.67 4.7 2.34 3 2 C3 2.66 3 3.32 3 4 C1.35 4 -0.3 4 -2 4 C-1.67 4.99 -1.34 5.98 -1 7 C-2.32 7 -3.64 7 -5 7 C-5 6.01 -5 5.02 -5 4 C-3.35 3.67 -1.7 3.34 0 3 C0 2.01 0 1.02 0 0 Z " fill="#C08C60" transform="translate(93,103)"/>
<path d="M0 0 C6.51539212 -0.250592 6.51539212 -0.250592 8.94140625 1.00390625 C11.38312409 2.18538262 12.99614328 2.17371309 15.6875 2.0625 C17.12413346 2.00842051 18.56249394 1.97958916 20 2 C20.33 2.33 20.66 2.66 21 3 C23.97095452 3.28707076 26.94222256 3.44862618 29.921875 3.62109375 C32.94213803 3.9928774 35.2455382 4.74008877 38 6 C38 6.33 38 6.66 38 7 C36.58847656 6.96519531 36.58847656 6.96519531 35.1484375 6.9296875 C33.90320313 6.91164062 32.65796875 6.89359375 31.375 6.875 C29.53035156 6.84019531 29.53035156 6.84019531 27.6484375 6.8046875 C24.05683959 6.9969572 21.33338825 7.69741444 18 9 C18 8.01 18 7.02 18 6 C17.45472656 5.87882813 16.90945312 5.75765625 16.34765625 5.6328125 C10.8984375 4.421875 5.44921875 3.2109375 0 2 C0 1.34 0 0.68 0 0 Z " fill="#DDE2E9" transform="translate(68,127)"/>
<path d="M0 0 C0.99 0.495 0.99 0.495 2 1 C2 2.32 2 3.64 2 5 C3.65 4.67 5.3 4.34 7 4 C6.505 4.969375 6.01 5.93875 5.5 6.9375 C3.67115233 11.28980574 3.08264879 15.33952825 4 20 C5.42324841 22.69329993 7.00635371 24.65746561 9 27 C6.33333333 25.66666667 3.66666667 24.33333333 1 23 C0.67 24.32 0.34 25.64 0 27 C0 18.09 0 9.18 0 0 Z " fill="#DDDDE4" transform="translate(113,52)"/>
<path d="M0 0 C2.375 -0.125 2.375 -0.125 5 0 C7.42539026 2.42539026 7.47171002 3.58822587 7.875 6.9375 C7.99617187 7.81277344 8.11734375 8.68804687 8.2421875 9.58984375 C8 12 8 12 6.2734375 13.8359375 C2.58123629 15.72644602 0.00440709 14.7341413 -4 14 C-4.33 13.01 -4.66 12.02 -5 11 C-2.36 10.67 0.28 10.34 3 10 C3.2502157 7.08365871 3.2502157 7.08365871 3 4 C2.01 3.34 1.02 2.68 0 2 C0 1.34 0 0.68 0 0 Z " fill="#B36431" transform="translate(152,70)"/>
<path d="M0 0 C2.58930551 1.29465275 2.73886478 2.40766649 4 5 C5.051875 6.546875 5.051875 6.546875 6.125 8.125 C8 11 8 11 8 13 C4.875 13.5 4.875 13.5 1 13 C-1.42952606 10.59682455 -3.2262164 7.91082436 -5 5 C-3.35 3.35 -1.7 1.7 0 0 Z " fill="#AD8878" transform="translate(96,65)"/>
<path d="M0 0 C7.75 -0.125 7.75 -0.125 10 1 C10 1.66 10 2.32 10 3 C10.66 3 11.32 3 12 3 C12 3.66 12 4.32 12 5 C12.66 5 13.32 5 14 5 C14 6.98 14 8.96 14 11 C12.35 11 10.7 11 9 11 C8.773125 10.360625 8.54625 9.72125 8.3125 9.0625 C7.14749104 6.72806339 7.14749104 6.72806339 4.375 6.25 C3.59125 6.1675 2.8075 6.085 2 6 C1.67 6.99 1.34 7.98 1 9 C1 7.35 1 5.7 1 4 C3.31 4.33 5.62 4.66 8 5 C8 4.01 8 3.02 8 2 C5.03 2 2.06 2 -1 2 C-0.67 1.34 -0.34 0.68 0 0 Z " fill="#A98374" transform="translate(150,58)"/>
<path d="M0 0 C0.66 0 1.32 0 2 0 C2 0.66 2 1.32 2 2 C2.66 2 3.32 2 4 2 C4.33 2.66 4.66 3.32 5 4 C7.02463255 4.65213292 7.02463255 4.65213292 9 5 C9.042721 6.66611905 9.04063832 8.33382885 9 10 C8 11 8 11 5.625 11.25 C3 11 3 11 1.1875 9.75 C0 8 0 8 0 4 C-1.65 3.67 -3.3 3.34 -5 3 C-5 2.67 -5 2.34 -5 2 C-3.35 2 -1.7 2 0 2 C0 1.34 0 0.68 0 0 Z " fill="#D6D0D9" transform="translate(147,70)"/>
<path d="M0 0 C1.65 0.33 3.3 0.66 5 1 C5 4.3 5 7.6 5 11 C3.68 11 2.36 11 1 11 C1.33 12.32 1.66 13.64 2 15 C1.34 14.67 0.68 14.34 0 14 C0 13.34 0 12.68 0 12 C-0.763125 11.731875 -1.52625 11.46375 -2.3125 11.1875 C-4.90483979 10.04204753 -6.30075537 9.23584819 -8 7 C-8 6.01 -8 5.02 -8 4 C-5.625 3.875 -5.625 3.875 -3 4 C-1 6 -1 6 -1 9 C0.65 9 2.3 9 4 9 C4 7.02 4 5.04 4 3 C3.34 3 2.68 3 2 3 C2 2.34 2 1.68 2 1 C1.34 0.67 0.68 0.34 0 0 Z " fill="#B9B0B5" transform="translate(160,60)"/>
<path d="M0 0 C0.144375 1.2375 0.28875 2.475 0.4375 3.75 C0.71611841 6.03547854 1.03818221 8.14509238 1.625 10.375 C2 12 2 12 1 14 C-1.97 13.505 -1.97 13.505 -5 13 C-5.08121924 11.39667209 -5.13929134 9.79215974 -5.1875 8.1875 C-5.22230469 7.29417969 -5.25710937 6.40085937 -5.29296875 5.48046875 C-5 3 -5 3 -3.61328125 1.17578125 C-2 0 -2 0 0 0 Z " fill="#7E705B" transform="translate(89,84)"/>
<path d="M0 0 C5.94 0 11.88 0 18 0 C18 0.33 18 0.66 18 1 C12.39 1 6.78 1 1 1 C1.33 9.25 1.66 17.5 2 26 C3.32 26 4.64 26 6 26 C6 23.03 6 20.06 6 17 C6.33 17 6.66 17 7 17 C7 20.63 7 24.26 7 28 C5.00045254 28.04254356 2.99958364 28.04080783 1 28 C0 27 0 27 -0.11352539 24.40795898 C-0.10828857 23.28204346 -0.10305176 22.15612793 -0.09765625 20.99609375 C-0.09443359 19.78115234 -0.09121094 18.56621094 -0.08789062 17.31445312 C-0.07951172 16.03505859 -0.07113281 14.75566406 -0.0625 13.4375 C-0.05798828 12.15423828 -0.05347656 10.87097656 -0.04882812 9.54882812 C-0.03699555 6.3658658 -0.01905944 3.18292726 0 0 Z " fill="#B9ABAB" transform="translate(79,51)"/>
<path d="M0 0 C3.42267755 1.20256238 5.55684199 2.33473672 8 5 C8.99 5.66 9.98 6.32 11 7 C7.05272412 7.17942163 4.4019487 7.09350689 1 5 C0.9175 5.61875 0.835 6.2375 0.75 6.875 C0 9 0 9 -1.75 10.25 C-4 11 -4 11 -9 11 C-8.34 7.7 -7.68 4.4 -7 1 C-6.07461831 4.70152678 -5.91825838 5.63458162 -7 9 C-5.35 8.67 -3.7 8.34 -2 8 C-1.34 5.36 -0.68 2.72 0 0 Z " fill="#DEE3ED" transform="translate(121,149)"/>
<path d="M0 0 C0.33 0.66 0.66 1.32 1 2 C3.31 2 5.62 2 8 2 C8 2.66 8 3.32 8 4 C6.35 4.33 4.7 4.66 3 5 C3 5.99 3 6.98 3 8 C4.32 8 5.64 8 7 8 C6.67 8.66 6.34 9.32 6 10 C4.37581255 10.08090971 2.75048255 10.13914995 1.125 10.1875 C-0.23238281 10.23970703 -0.23238281 10.23970703 -1.6171875 10.29296875 C-2.79667969 10.14794922 -2.79667969 10.14794922 -4 10 C-4.66 9.01 -5.32 8.02 -6 7 C-2.25 1.125 -2.25 1.125 0 0 Z " fill="#C69261" transform="translate(85,102)"/>
<path d="M0 0 C2.31 0 4.62 0 7 0 C7 1.65 7 3.3 7 5 C3.37 4.34 -0.26 3.68 -4 3 C-4.144375 4.093125 -4.28875 5.18625 -4.4375 6.3125 C-5 10 -5 10 -6 13 C-7.65 12.67 -9.3 12.34 -11 12 C-11 10.35 -11 8.7 -11 7 C-10.67 7.99 -10.34 8.98 -10 10 C-9.01 9.67 -8.02 9.34 -7 9 C-6.67 6.69 -6.34 4.38 -6 2 C-4.02 2 -2.04 2 0 2 C0 1.34 0 0.68 0 0 Z " fill="#A76C52" transform="translate(73,142)"/>
<path d="M0 0 C0.53560547 0.98226562 0.53560547 0.98226562 1.08203125 1.984375 C2.90299431 4.32434604 2.90299431 4.32434604 6.13671875 4.390625 C7.89435547 4.32101563 7.89435547 4.32101563 9.6875 4.25 C10.86699219 4.21390625 12.04648438 4.1778125 13.26171875 4.140625 C14.16535156 4.09421875 15.06898437 4.0478125 16 4 C12.0474295 7.36750843 8.98057042 8.5904046 4 10 C3.01 11.485 3.01 11.485 2 13 C0.18884044 11.18884044 0.61800552 8.38721773 0.4375 5.9375 C0.35371094 4.83277344 0.26992187 3.72804688 0.18359375 2.58984375 C0.09271484 1.30787109 0.09271484 1.30787109 0 0 Z " fill="#E3BB93" transform="translate(92,83)"/>
<path d="M0 0 C0.66 0 1.32 0 2 0 C2 1.98 2 3.96 2 6 C-2.1205746 7.99785435 -5.45194365 8.17835515 -10 8 C-10 8.66 -10 9.32 -10 10 C-12.70879335 11.35439668 -15.00933268 11.06501451 -18 11 C-21.07692308 5.58461538 -21.07692308 5.58461538 -20.6875 2.625 C-20.460625 2.08875 -20.23375 1.5525 -20 1 C-18.74335022 3.90600261 -18 5.79604584 -18 9 C-16.40450476 8.54909917 -14.80983076 8.09514508 -13.21875 7.62890625 C-11.60160919 7.17052655 -9.97497679 6.74525158 -8.34375 6.33984375 C-7.4465625 6.10394531 -6.549375 5.86804688 -5.625 5.625 C-4.34496094 5.30402344 -4.34496094 5.30402344 -3.0390625 4.9765625 C-0.79501719 4.1911572 -0.79501719 4.1911572 -0.2109375 1.8984375 C-0.14132813 1.27195312 -0.07171875 0.64546875 0 0 Z " fill="#D4D3D8" transform="translate(54,78)"/>
<path d="M0 0 C0.9075 0.103125 1.815 0.20625 2.75 0.3125 C3.08 1.6325 3.41 2.9525 3.75 4.3125 C3.09 3.6525 2.43 2.9925 1.75 2.3125 C0.43 2.3125 -0.89 2.3125 -2.25 2.3125 C-4.85018816 6.21278225 -4.40085514 9.78684569 -4.25 14.3125 C-1.27934491 13.97022428 -1.27934491 13.97022428 1.75 13.3125 C2.08 12.6525 2.41 11.9925 2.75 11.3125 C5.72 11.8075 5.72 11.8075 8.75 12.3125 C8.75 13.9625 8.75 15.6125 8.75 17.3125 C8.42 15.9925 8.09 14.6725 7.75 13.3125 C6.71875 13.8075 5.6875 14.3025 4.625 14.8125 C1.2086918 16.26772256 -1.50365891 16.83524527 -5.25 16.3125 C-7.71772206 12.6109169 -7.91829025 9.60626485 -7.25 5.3125 C-5.18306505 1.49662009 -4.37231323 0.42041473 0 0 Z " fill="#C8C4CD" transform="translate(129.25,58.6875)"/>
<path d="M0 0 C1.65 0.33 3.3 0.66 5 1 C4.67 3.64 4.34 6.28 4 9 C1.36 8.67 -1.28 8.34 -4 8 C-4.33 6.02 -4.66 4.04 -5 2 C-3.35 2 -1.7 2 0 2 C0 1.34 0 0.68 0 0 Z " fill="#A2714E" transform="translate(96,105)"/>
<path d="M0 0 C0 0.66 0 1.32 0 2 C-0.66 2 -1.32 2 -2 2 C-2 3.65 -2 5.3 -2 7 C-2.66 7 -3.32 7 -4 7 C-4.33 8.98 -4.66 10.96 -5 13 C-5.99 13.33 -6.98 13.66 -8 14 C-8.64674224 10.64462442 -9.12874481 7.42246621 -9 4 C-5.97338586 0.36806303 -4.75961163 0 0 0 Z " fill="#C2B7AA" transform="translate(117,86)"/>
<path d="M0 0 C0.66 0.33 1.32 0.66 2 1 C2 1.99 2 2.98 2 4 C0.35 4.33 -1.3 4.66 -3 5 C-2.855625 6.27875 -2.71125 7.5575 -2.5625 8.875 C-2.48128906 9.59429687 -2.40007812 10.31359375 -2.31640625 11.0546875 C-2.08707039 13.07404316 -2.08707039 13.07404316 -1 15 C-1.515625 14.690625 -2.03125 14.38125 -2.5625 14.0625 C-5.66665423 12.70940713 -8.65115007 12.38640576 -12 12 C-11.67 11.34 -11.34 10.68 -11 10 C-10.34 10 -9.68 10 -9 10 C-9 9.34 -9 8.68 -9 8 C-8.34 8 -7.68 8 -7 8 C-7 6.35 -7 4.7 -7 3 C-7.99 2.67 -8.98 2.34 -10 2 C-8.68 2 -7.36 2 -6 2 C-6 2.66 -6 3.32 -6 4 C-4.02 3.67 -2.04 3.34 0 3 C0 2.01 0 1.02 0 0 Z " fill="#DDDEE4" transform="translate(145,68)"/>
<path d="M0 0 C0.99 0.33 1.98 0.66 3 1 C3 2.65 3 4.3 3 6 C3.66 6 4.32 6 5 6 C5 6.66 5 7.32 5 8 C3.02 8 1.04 8 -1 8 C-1 10.31 -1 12.62 -1 15 C-2.32 15.33 -3.64 15.66 -5 16 C-5 15.01 -5 14.02 -5 13 C-4.34 13 -3.68 13 -3 13 C-2.95101562 12.39671875 -2.90203125 11.7934375 -2.8515625 11.171875 C-2.77679688 10.37265625 -2.70203125 9.5734375 -2.625 8.75 C-2.52058594 7.56664062 -2.52058594 7.56664062 -2.4140625 6.359375 C-1.98492887 3.914123 -1.21399362 2.15163097 0 0 Z " fill="#BB6425" transform="translate(68,136)"/>
<path d="M0 0 C2 2 2 2 2 6 C2.99 5.67 3.98 5.34 5 5 C5.33 3.35 5.66 1.7 6 0 C6.99 0.33 7.98 0.66 9 1 C8.712641 4.44830801 8.23781351 5.76218649 5.75 8.25 C3.03650929 9.97676682 1.16470757 10.63831913 -2 11 C-1.85957123 9.35369672 -1.71250671 7.70795821 -1.5625 6.0625 C-1.48128906 5.14597656 -1.40007812 4.22945313 -1.31640625 3.28515625 C-1 1 -1 1 0 0 Z " fill="#CAAA8C" transform="translate(108,116)"/>
<path d="M0 0 C0.33 0 0.66 0 1 0 C1.125 6.75 1.125 6.75 0 9 C-0.66 9 -1.32 9 -2 9 C-1.55110117 12.6660071 -0.97794242 16.07525528 0.0625 19.625 C0.89927404 22.63738655 1.18742394 24.90750499 1 28 C-0.88391785 24.73454239 -1.49287967 21.71888239 -2 18 C-3.98 17.34 -5.96 16.68 -8 16 C-8 15.01 -8 14.02 -8 13 C-6.35 13 -4.7 13 -3 13 C-2.67 10.36 -2.34 7.72 -2 5 C-1.34 5 -0.68 5 0 5 C0 3.35 0 1.7 0 0 Z " fill="#E8D4C1" transform="translate(115,88)"/>
<path d="M0 0 C2.97 0 5.94 0 9 0 C9.33 1.65 9.66 3.3 10 5 C6.78548731 6.60725635 3.56387464 6.05748185 0 6 C0 4.02 0 2.04 0 0 Z " fill="#C9BABD" transform="translate(85,57)"/>
<path d="M0 0 C-0.25 1.875 -0.25 1.875 -1 4 C-1.66 4.2475 -2.32 4.495 -3 4.75 C-3.66 5.1625 -4.32 5.575 -5 6 C-5.70535611 8.8786935 -5.70535611 8.8786935 -5.75 12.125 C-5.80671875 13.22070312 -5.8634375 14.31640625 -5.921875 15.4453125 C-5.94765625 16.28835937 -5.9734375 17.13140625 -6 18 C-6.66 18 -7.32 18 -8 18 C-8.13501894 15.56065775 -8.23403897 13.12875896 -8.3125 10.6875 C-8.35439453 9.99720703 -8.39628906 9.30691406 -8.43945312 8.59570312 C-8.48828125 6.57421875 -8.48828125 6.57421875 -8 3 C-5.1500065 0.57965376 -3.74118282 0 0 0 Z " fill="#BD662D" transform="translate(126,55)"/>
<path d="M0 0 C2.1640625 -0.29296875 2.1640625 -0.29296875 4.625 -0.1875 C5.44226563 -0.16042969 6.25953125 -0.13335937 7.1015625 -0.10546875 C8.04128906 -0.05326172 8.04128906 -0.05326172 9 0 C8.67 1.65 8.34 3.3 8 5 C5.03 4.67 2.06 4.34 -1 4 C-1 6.97 -1 9.94 -1 13 C-2.32 12.67 -3.64 12.34 -5 12 C-4.01 12 -3.02 12 -2 12 C-2.02320312 11.38511719 -2.04640625 10.77023438 -2.0703125 10.13671875 C-2.08835937 9.32847656 -2.10640625 8.52023438 -2.125 7.6875 C-2.14820312 6.88699219 -2.17140625 6.08648437 -2.1953125 5.26171875 C-2 3 -2 3 0 0 Z " fill="#B2724D" transform="translate(86,64)"/>
<path d="M0 0 C1.2732384 2.5464768 0.8180144 3.24707915 0.00390625 5.921875 C-0.33930664 7.08976563 -0.33930664 7.08976563 -0.68945312 8.28125 C-1.18348627 9.91168836 -1.67826358 11.54190145 -2.17382812 13.171875 C-3.4684254 17.58148363 -4.30765428 21.34766704 -4 26 C-4.99 25.67 -5.98 25.34 -7 25 C-7.48859957 18.9739386 -5.67687583 13.7079862 -4 8 C-3.81050781 7.26394531 -3.62101562 6.52789062 -3.42578125 5.76953125 C-3.01164468 4.16268138 -2.51443578 2.57760307 -2 1 C-1.34 0.67 -0.68 0.34 0 0 Z " fill="#D4D5E1" transform="translate(67,129)"/>
<path d="M0 0 C1.98 0 3.96 0 6 0 C6.35233161 5.37305699 6.35233161 5.37305699 6 8 C4 10 4 10 2 11 C2 8.69 2 6.38 2 4 C1.67 4.99 1.34 5.98 1 7 C-1.475 6.01 -1.475 6.01 -4 5 C-4 4.34 -4 3.68 -4 3 C-2.68 3 -1.36 3 0 3 C0 2.01 0 1.02 0 0 Z " fill="#DFC8B2" transform="translate(107,113)"/>
<path d="M0 0 C5.88464919 0.3869724 10.81292356 1.0822695 16 4 C16.9375 6.1875 16.9375 6.1875 17 8 C14.36 7.67 11.72 7.34 9 7 C9 6.67 9 6.34 9 6 C10.65 6 12.3 6 14 6 C14 5.34 14 4.68 14 4 C12.783125 3.855625 11.56625 3.71125 10.3125 3.5625 C7.17329623 3.17219047 4.0924866 2.67648144 1 2 C1 3.32 1 4.64 1 6 C0.01 6.33 -0.98 6.66 -2 7 C-1.34 4.69 -0.68 2.38 0 0 Z " fill="#AA806D" transform="translate(68,129)"/>
<path d="M0 0 C0.66 0 1.32 0 2 0 C2 0.99 2 1.98 2 3 C2.66 3.33 3.32 3.66 4 4 C3.01 5.98 2.02 7.96 1 10 C0.67 10 0.34 10 0 10 C0 8.35 0 6.7 0 5 C-3.3 4.67 -6.6 4.34 -10 4 C-8.60804085 6.7839183 -6.84424221 6.97898997 -4 8 C-6.60582371 8.93065133 -7.64198224 9.14917407 -10.25 8.0625 C-10.8275 7.711875 -11.405 7.36125 -12 7 C-12 5.35 -12 3.7 -12 2 C-10.58297487 2.14230808 -9.1663904 2.28900746 -7.75 2.4375 C-6.56664063 2.55931641 -6.56664063 2.55931641 -5.359375 2.68359375 C-3.17635361 2.97634993 -1.1226818 3.42064419 1 4 C0.67 2.68 0.34 1.36 0 0 Z " fill="#B09DA5" transform="translate(84,133)"/>
<path d="M0 0 C2.97 0.495 2.97 0.495 6 1 C5.01 1.495 5.01 1.495 4 2 C4.66 3.32 5.32 4.64 6 6 C2.7 5.67 -0.6 5.34 -4 5 C-4.33218192 8.00259517 -4.33218192 8.00259517 -2.5 9.6875 C-1.7575 10.3371875 -1.7575 10.3371875 -1 11 C-1.99 11.495 -1.99 11.495 -3 12 C-3 11.34 -3 10.68 -3 10 C-4.65 9.67 -6.3 9.34 -8 9 C-7.67 7.35 -7.34 5.7 -7 4 C-3.7 4 -0.4 4 3 4 C3 3.34 3 2.68 3 2 C2.01 2 1.02 2 0 2 C0 1.34 0 0.68 0 0 Z " fill="#A9A89E" transform="translate(88,116)"/>
<path d="M0 0 C0.66 0 1.32 0 2 0 C1.814375 0.9075 1.62875 1.815 1.4375 2.75 C1.04265379 5.68314324 1.05308428 7.2644657 2 10 C1.67 9.34 1.34 8.68 1 8 C-1.32716 7.62599214 -3.66117862 7.29235267 -6 7 C-7 6 -7 6 -7.0625 3.4375 C-7.041875 2.633125 -7.02125 1.82875 -7 1 C-4.69 1.33 -2.38 1.66 0 2 C0 1.34 0 0.68 0 0 Z " fill="#E1A26B" transform="translate(103,97)"/>
<path d="M0 0 C1.93242285 3.34520258 2.5463853 6.44767482 3.125 10.25 C3.29257813 11.32765625 3.46015625 12.4053125 3.6328125 13.515625 C3.75398438 14.33546875 3.87515625 15.1553125 4 16 C2.68 16 1.36 16 0 16 C-1.29758261 13.40483479 -1.13269102 11.45816973 -1.125 8.5625 C-1.12757812 7.59441406 -1.13015625 6.62632812 -1.1328125 5.62890625 C-1 3 -1 3 0 0 Z " fill="#B5632B" transform="translate(87,140)"/>
<path d="M0 0 C1.44207941 2.88415883 1.09394887 5.41721528 1.0625 8.625 C1.05347656 9.81351563 1.04445313 11.00203125 1.03515625 12.2265625 C1.02355469 13.14179687 1.01195313 14.05703125 1 15 C-1.31 15 -3.62 15 -6 15 C-6.66 10.71 -7.32 6.42 -8 2 C-7.01 2.495 -7.01 2.495 -6 3 C-5.3671875 5.28515625 -5.3671875 5.28515625 -4.875 8.0625 C-4.70742188 8.98160156 -4.53984375 9.90070313 -4.3671875 10.84765625 C-4.24601562 11.55792969 -4.12484375 12.26820312 -4 13 C-3.01 13 -2.02 13 -1 13 C-1.01160156 12.14535156 -1.02320312 11.29070312 -1.03515625 10.41015625 C-1.04417969 9.30542969 -1.05320312 8.20070313 -1.0625 7.0625 C-1.07410156 5.96035156 -1.08570312 4.85820313 -1.09765625 3.72265625 C-1 1 -1 1 0 0 Z " fill="#B4A3A5" transform="translate(68,66)"/>
<path d="M0 0 C0.33 0 0.66 0 1 0 C1 5.28 1 10.56 1 16 C1.66 16 2.32 16 3 16 C3 13.03 3 10.06 3 7 C3.33 7 3.66 7 4 7 C4 10.3 4 13.6 4 17 C2.68 17 1.36 17 0 17 C-2.25 14.5 -2.25 14.5 -4 12 C-3.71125 11.505 -3.4225 11.01 -3.125 10.5 C-1.58711584 7.08247965 -0.85152195 3.6493798 0 0 Z " fill="#DBDEE7" transform="translate(101,56)"/>
<path d="M0 0 C1.32 0.66 2.64 1.32 4 2 C3.27275406 7.52706913 1.66554027 12.69960141 0 18 C-1.11520565 14.4154104 -1.13337312 11.05109703 -1.125 7.3125 C-1.12757812 6.15363281 -1.13015625 4.99476563 -1.1328125 3.80078125 C-1 1 -1 1 0 0 Z " fill="#E8ECF3" transform="translate(112,142)"/>
<path d="M0 0 C1.65 0 3.3 0 5 0 C6.57077907 5.02649303 7.44854729 9.76119922 8 15 C7.34 15 6.68 15 6 15 C6 13.02 6 11.04 6 9 C5.01 9 4.02 9 3 9 C3 7.02 3 5.04 3 3 C2.01 3 1.02 3 0 3 C0 2.01 0 1.02 0 0 Z " fill="#BEAC92" transform="translate(86,81)"/>
<path d="M0 0 C1.65 0 3.3 0 5 0 C5 0.66 5 1.32 5 2 C4.01 2 3.02 2 2 2 C3.86566488 5.62793998 3.86566488 5.62793998 7 8 C7.59355614 10.64860427 7.74209269 13.29197322 8 16 C7.5978125 15.12408203 7.5978125 15.12408203 7.1875 14.23046875 C5.98776545 11.97701996 4.66982858 10.23697744 3 8.3125 C2.484375 7.71050781 1.96875 7.10851562 1.4375 6.48828125 C0.04954056 4.88616884 0.04954056 4.88616884 -2 4 C-1.34 2.68 -0.68 1.36 0 0 Z " fill="#A98D83" transform="translate(109,132)"/>
<path d="M0 0 C0.33 0 0.66 0 1 0 C1.12086218 6.43255401 0.82351864 12.61773055 0 19 C-0.66 19 -1.32 19 -2 19 C-3.2207243 12.4894704 -3.67487679 5.87980287 0 0 Z " fill="#ECF2F9" transform="translate(104,53)"/>
<path d="M0 0 C1.65 0 3.3 0 5 0 C3.66666667 5.33333333 2.33333333 10.66666667 1 16 C0.34 16 -0.32 16 -1 16 C-1 14.02 -1 12.04 -1 10 C-0.34 10 0.32 10 1 10 C0.67 6.7 0.34 3.4 0 0 Z " fill="#BB5D20" transform="translate(117,140)"/>
<path d="M0 0 C1.4540625 0.0309375 1.4540625 0.0309375 2.9375 0.0625 C5.0625 6.5625 5.0625 6.5625 3.9375 11.0625 C3.2775 8.0925 2.6175 5.1225 1.9375 2.0625 C0.6175 2.3925 -0.7025 2.7225 -2.0625 3.0625 C-1.7325 6.6925 -1.4025 10.3225 -1.0625 14.0625 C-4.4503628 9.5453496 -4.4503628 9.5453496 -4.3125 5.375 C-4.29703125 4.58738281 -4.2815625 3.79976562 -4.265625 2.98828125 C-3.92355406 -0.25481438 -3.34991089 0.06836553 0 0 Z " fill="#D2C9CF" transform="translate(32.0625,59.9375)"/>
<path d="M0 0 C0.66 0 1.32 0 2 0 C2 2.64 2 5.28 2 8 C1.34 8 0.68 8 0 8 C0 9.98 0 11.96 0 14 C0.66 14 1.32 14 2 14 C2.66 12.35 3.32 10.7 4 9 C4.33 9.66 4.66 10.32 5 11 C4.0625 13.625 4.0625 13.625 3 16 C1.35 16 -0.3 16 -2 16 C-1.67 12.7 -1.34 9.4 -1 6 C-0.34 6 0.32 6 1 6 C0.67 4.02 0.34 2.04 0 0 Z " fill="#A2725F" transform="translate(116,142)"/>
<path d="M0 0 C2.31 1.65 4.62 3.3 7 5 C6.67 5.99 6.34 6.98 6 8 C4.35 8.33 2.7 8.66 1 9 C-0.32 7.35 -1.64 5.7 -3 4 C-1.68 4 -0.36 4 1 4 C0.67 2.68 0.34 1.36 0 0 Z " fill="#A0735B" transform="translate(128,146)"/>
<path d="M0 0 C1.32 0.66 2.64 1.32 4 2 C3.34 3.32 2.68 4.64 2 6 C2.66 6.66 3.32 7.32 4 8 C2.35 9.32 0.7 10.64 -1 12 C-2.45606519 7.47907032 -1.27032841 4.48351204 0 0 Z " fill="#C08C5B" transform="translate(78,103)"/>
<path d="M0 0 C0.639375 0.33 1.27875 0.66 1.9375 1 C5.95369755 2.31141145 9.80476099 2.53422519 14 2 C14.99 1.34 15.98 0.68 17 0 C16.4453125 1.921875 16.4453125 1.921875 15 4 C11.7421875 4.828125 11.7421875 4.828125 7.875 5.25 C6.59367188 5.39953125 5.31234375 5.5490625 3.9921875 5.703125 C3.00476563 5.80109375 2.01734375 5.8990625 1 6 C0.67 4.02 0.34 2.04 0 0 Z " fill="#DFE2EC" transform="translate(144,83)"/>
<path d="M0 0 C0.99 0.33 1.98 0.66 3 1 C3 1.66 3 2.32 3 3 C3.66 3 4.32 3 5 3 C5.33 5.97 5.66 8.94 6 12 C3 11 3 11 2.05078125 9.2578125 C1.80714844 8.55398437 1.56351563 7.85015625 1.3125 7.125 C1.06113281 6.42632812 0.80976563 5.72765625 0.55078125 5.0078125 C0 3 0 3 0 0 Z " fill="#BE7142" transform="translate(31,65)"/>
<path d="M0 0 C-0.33 1.98 -0.66 3.96 -1 6 C-1.66 5.67 -2.32 5.34 -3 5 C-3 9.29 -3 13.58 -3 18 C-5 17 -5 17 -6 14 C-6.11687338 12.52413385 -6.17501742 11.04293388 -6.1875 9.5625 C-6.20167969 8.80066406 -6.21585937 8.03882813 -6.23046875 7.25390625 C-5.97205842 4.7267408 -5.34404101 3.14574968 -4 1 C-2 0 -2 0 0 0 Z " fill="#A96B4D" transform="translate(90,138)"/>
<path d="M0 0 C1.65 0 3.3 0 5 0 C4.98839844 1.13179687 4.97679688 2.26359375 4.96484375 3.4296875 C4.95546546 4.91145669 4.9463653 6.39322765 4.9375 7.875 C4.92912109 8.62136719 4.92074219 9.36773437 4.91210938 10.13671875 C4.79311916 14.19845578 4.79311916 14.19845578 6 18 C4.0625 17.25 4.0625 17.25 2 16 C0.51394601 12.44639264 1.36759594 9.84487763 2.4375 6.25 C2.72496094 5.26515625 3.01242188 4.2803125 3.30859375 3.265625 C3.53675781 2.51796875 3.76492187 1.7703125 4 1 C2.68 0.67 1.36 0.34 0 0 Z " fill="#C0B7C7" transform="translate(123,128)"/>
<path d="M0 0 C2.31 0.33 4.62 0.66 7 1 C7 1.66 7 2.32 7 3 C7.66 3 8.32 3 9 3 C9 3.66 9 4.32 9 5 C8.01 5 7.02 5 6 5 C5.67 6.65 5.34 8.3 5 10 C3.68 8.35 2.36 6.7 1 5 C1.66 5 2.32 5 3 5 C3 3.68 3 2.36 3 1 C2.01 0.67 1.02 0.34 0 0 Z " fill="#A9998A" transform="translate(93,113)"/>
<path d="M0 0 C3.3 0.33 6.6 0.66 10 1 C10 2.65 10 4.3 10 6 C8.5164999 5.57742724 7.03823576 5.13643678 5.5625 4.6875 C4.73878906 4.44386719 3.91507812 4.20023438 3.06640625 3.94921875 C2.04353516 3.47935547 2.04353516 3.47935547 1 3 C0.67 2.01 0.34 1.02 0 0 Z " fill="#E3E8F4" transform="translate(74,137)"/>
<path d="M0 0 C6.34257749 0.46982055 6.34257749 0.46982055 8.9375 2.5625 C9.288125 3.036875 9.63875 3.51125 10 4 C7.69 4.66 5.38 5.32 3 6 C1.68 4.35 0.36 2.7 -1 1 C-0.67 0.67 -0.34 0.34 0 0 Z " fill="#7E7B72" transform="translate(86,121)"/>
<path d="M0 0 C3.48670834 1.1094072 6.77484237 2.26337666 10 4 C9.67 5.65 9.34 7.3 9 9 C7.02 9 5.04 9 3 9 C3.66 7.68 4.32 6.36 5 5 C3.35 3.35 1.7 1.7 0 0 Z " fill="#D8D4DE" transform="translate(129,146)"/>
<path d="M0 0 C0.33 0 0.66 0 1 0 C1 2.31 1 4.62 1 7 C1.66 7 2.32 7 3 7 C4.49524178 9.2727675 5.78399715 11.5679943 7 14 C4.50638429 12.79618552 2.31856917 11.54571278 0 10 C-0.1875 7.375 -0.1875 7.375 0 5 C-1.65 4.67 -3.3 4.34 -5 4 C-4.0409375 3.8453125 -4.0409375 3.8453125 -3.0625 3.6875 C-2.381875 3.460625 -1.70125 3.23375 -1 3 C-0.67 2.01 -0.34 1.02 0 0 Z " fill="#DCDDE6" transform="translate(82,145)"/>
<path d="M0 0 C0.99 0 1.98 0 3 0 C3 1.98 3 3.96 3 6 C3.66 6 4.32 6 5 6 C4.67 6.99 4.34 7.98 4 9 C0.4375 10.1875 0.4375 10.1875 -3 11 C-3.33 9.68 -3.66 8.36 -4 7 C-1.525 7.495 -1.525 7.495 1 8 C1.08226668 4.95613276 0.97608217 2.92824652 0 0 Z " fill="#AB9170" transform="translate(89,90)"/>
<path d="M0 0 C2.97 0.33 5.94 0.66 9 1 C9 1.99 9 2.98 9 4 C2.25 5.125 2.25 5.125 0 4 C0 2.68 0 1.36 0 0 Z " fill="#BE6E40" transform="translate(36,80)"/>
<path d="M0 0 C2.32319452 2.08286405 2.94910155 2.66552446 3.4375 5.875 C2.87557382 9.88875841 2.13305927 11.40185329 -1 14 C-4.04542461 14.41409388 -6.94709737 14.29354833 -10 14 C-10 13.67 -10 13.34 -10 13 C-9.36191406 12.86722656 -8.72382813 12.73445313 -8.06640625 12.59765625 C-7.24011719 12.42105469 -6.41382813 12.24445313 -5.5625 12.0625 C-4.73878906 11.88847656 -3.91507813 11.71445313 -3.06640625 11.53515625 C-1.02338796 11.19247006 -1.02338796 11.19247006 0 10 C0.07205511 8.31391034 0.08386068 6.62499341 0.0625 4.9375 C0.04896484 3.55884766 0.04896484 3.55884766 0.03515625 2.15234375 C0.02355469 1.44207031 0.01195312 0.73179688 0 0 Z " fill="#A07E70" transform="translate(159,72)"/>
<path d="M0 0 C3.19588316 0.03448795 6.13691725 0.34672931 9.25 1.125 C9.25 1.785 9.25 2.445 9.25 3.125 C8.58613281 3.07859375 7.92226562 3.0321875 7.23828125 2.984375 C1.36883743 2.69988443 1.36883743 2.69988443 -3.875 5.125 C-4.49375 5.785 -5.1125 6.445 -5.75 7.125 C-4.71222381 0.15707413 -4.71222381 0.15707413 0 0 Z " fill="#E0E2ED" transform="translate(150.75,55.875)"/>
<path d="M0 0 C1.41702513 0.14230808 2.8336096 0.28900746 4.25 0.4375 C5.43335937 0.55931641 5.43335937 0.55931641 6.640625 0.68359375 C8.82364639 0.97634993 10.8773182 1.42064419 13 2 C13 2.66 13 3.32 13 4 C8.71 3.67 4.42 3.34 0 3 C0 2.01 0 1.02 0 0 Z " fill="#BA632E" transform="translate(69,131)"/>
<path d="M0 0 C0.99 0.33 1.98 0.66 3 1 C3.25 3.3125 3.25 3.3125 3 6 C1.25 7.875 1.25 7.875 -1 9 C-3.25 8.6875 -3.25 8.6875 -5 8 C-4 6 -4 6 -1 5 C-0.67 3.35 -0.34 1.7 0 0 Z " fill="#B76029" transform="translate(157,76)"/>
<path d="M0 0 C0.66 0.99 1.32 1.98 2 3 C-3.39460953 5.27141454 -8.26157749 5.20413361 -14 5 C-14 4.67 -14 4.34 -14 4 C-9.66720517 2.41483116 -5.56156234 1.62609679 -1 1 C-0.67 0.67 -0.34 0.34 0 0 Z " fill="#DDD1C9" transform="translate(105,125)"/>
<path d="M0 0 C-0.928125 0.556875 -1.85625 1.11375 -2.8125 1.6875 C-5.9419407 3.95787855 -7.29754051 5.59508103 -9 9 C-9.66 8.67 -10.32 8.34 -11 8 C-10.9375 5.75 -10.9375 5.75 -10 3 C-6.76407379 0.3214184 -4.19006351 -1.39668784 0 0 Z " fill="#9E876D" transform="translate(115,86)"/>
<path d="M0 0 C1.32 0 2.64 0 4 0 C4.33 1.98 4.66 3.96 5 6 C3.68 5.01 2.36 4.02 1 3 C1.66 5.64 2.32 8.28 3 11 C0.24438617 8.96324195 -0.03270868 7.84190804 -0.75 4.375 C-0.8325 3.26125 -0.915 2.1475 -1 1 C-0.67 0.67 -0.34 0.34 0 0 Z " fill="#AB806D" transform="translate(30,62)"/>
<path d="M0 0 C1.98 0 3.96 0 6 0 C5.21681311 3.91593446 3.60820142 7.36406635 2 11 C0.74458443 7.23375329 1.62938042 5.62811066 3 2 C0.66924071 2.95865509 0.66924071 2.95865509 -1 6 C-0.67 4.02 -0.34 2.04 0 0 Z " fill="#A9806D" transform="translate(68,53)"/>
<path d="M0 0 C0.391875 0.515625 0.78375 1.03125 1.1875 1.5625 C2.91242048 3.27703471 2.91242048 3.27703471 5.25 2.75 C6.1575 2.5025 7.065 2.255 8 2 C10.33177975 1.65596692 12.66487041 1.32050798 15 1 C14.67 1.99 14.34 2.98 14 4 C9.9472484 4.98248524 6.16138263 5.08159574 2 5 C1.34 3.35 0.68 1.7 0 0 Z " fill="#DDDEE5" transform="translate(39,74)"/>
<path d="M0 0 C6.44807122 0.60830861 6.44807122 0.60830861 8.9375 2.375 C10 4 10 4 10 7 C8.68 7 7.36 7 6 7 C6 6.01 6 5.02 6 4 C5.34 4 4.68 4 4 4 C4 3.34 4 2.68 4 2 C2.68 2 1.36 2 0 2 C0 1.34 0 0.68 0 0 Z " fill="#B26835" transform="translate(128,55)"/>
<path d="M0 0 C4.95 0.33 9.9 0.66 15 1 C15 1.66 15 2.32 15 3 C8.94474232 4.38766322 5.67989374 3.49118146 0 1 C0 0.67 0 0.34 0 0 Z " fill="#D7D7DF" transform="translate(89,159)"/>
<path d="M0 0 C1.9375 0.8125 1.9375 0.8125 4 2 C4.33 2.99 4.66 3.98 5 5 C5.66 4.67 6.32 4.34 7 4 C7.66 4.33 8.32 4.66 9 5 C9 5.99 9 6.98 9 8 C6.03 7.505 6.03 7.505 3 7 C2.67 6.01 2.34 5.02 2 4 C1.01 3.67 0.02 3.34 -1 3 C-0.67 2.01 -0.34 1.02 0 0 Z " fill="#94908B" transform="translate(84,121)"/>
<path d="M0 0 C0.33 0 0.66 0 1 0 C1 2.97 1 5.94 1 9 C1.99 8.67 2.98 8.34 4 8 C4 8.66 4 9.32 4 10 C2.35 10 0.7 10 -1 10 C-1.33 10.66 -1.66 11.32 -2 12 C-2.05422947 10.5629191 -2.09289723 9.12524538 -2.125 7.6875 C-2.14820312 6.88699219 -2.17140625 6.08648437 -2.1953125 5.26171875 C-2 3 -2 3 0 0 Z " fill="#E4C7A6" transform="translate(108,91)"/>
<path d="M0 0 C0.66 0 1.32 0 2 0 C2.5775 0.61875 3.155 1.2375 3.75 1.875 C6.36113753 4.34107433 8.57011055 5.06457561 12 6 C12 6.33 12 6.66 12 7 C8.94928825 7.287803 6.03939738 7.4472872 3 7 C0.89638304 4.5776532 0 3.21754366 0 0 Z " fill="#F9F2E8" transform="translate(92,81)"/>
<path d="M0 0 C0.66 0 1.32 0 2 0 C2 1.98 2 3.96 2 6 C-2.43076923 8.09230769 -2.43076923 8.09230769 -5.3125 7.625 C-5.869375 7.41875 -6.42625 7.2125 -7 7 C-6.67 6.34 -6.34 5.68 -6 5 C-3.4375 4.375 -3.4375 4.375 -1 4 C-0.67 2.68 -0.34 1.36 0 0 Z " fill="#E0DEE3" transform="translate(54,78)"/>
<path d="M0 0 C0.66 0.33 1.32 0.66 2 1 C2 1.99 2 2.98 2 4 C0.824375 4.12375 0.824375 4.12375 -0.375 4.25 C-3.14749104 4.72806339 -3.14749104 4.72806339 -4.3125 7.0625 C-4.539375 7.701875 -4.76625 8.34125 -5 9 C-5.66 8.67 -6.32 8.34 -7 8 C-7 6.35 -7 4.7 -7 3 C-7.99 2.67 -8.98 2.34 -10 2 C-8.68 2 -7.36 2 -6 2 C-6 2.66 -6 3.32 -6 4 C-4.02 3.67 -2.04 3.34 0 3 C0 2.01 0 1.02 0 0 Z " fill="#D3D9E8" transform="translate(145,68)"/>
<path d="M0 0 C1.65 0 3.3 0 5 0 C5 1.98 5 3.96 5 6 C3.35 6 1.7 6 0 6 C0 4.02 0 2.04 0 0 Z " fill="#AD6740" transform="translate(159,63)"/>
<path d="M0 0 C0.92538169 3.70152678 1.08174162 4.63458162 0 8 C2.44480079 7.81171228 2.44480079 7.81171228 5 7 C6.36020151 5.03241727 6.36020151 5.03241727 7 3 C7 4.65 7 6.3 7 8 C3.53785351 10.05164237 2.40610765 10 -2 10 C-1.34 6.7 -0.68 3.4 0 0 Z " fill="#BAABAF" transform="translate(114,150)"/>
<path d="M0 0 C0.66 0 1.32 0 2 0 C2.17835515 4.54805635 1.99785435 7.8794254 0 12 C-0.99 12 -1.98 12 -3 12 C-3 10.68 -3 9.36 -3 8 C-2.34 7.67 -1.68 7.34 -1 7 C-0.59270772 4.67843403 -0.25561323 2.3431213 0 0 Z " fill="#BC5F21" transform="translate(105,144)"/>
<path d="M0 0 C0.33 0.99 0.66 1.98 1 3 C3.00016466 4.20882096 3.00016466 4.20882096 5 5 C4.01 5.33 3.02 5.66 2 6 C3.32 7.65 4.64 9.3 6 11 C4.35 10.67 2.7 10.34 1 10 C1 9.34 1 8.68 1 8 C0.34 8 -0.32 8 -1 8 C-1 7.34 -1 6.68 -1 6 C-0.34 6 0.32 6 1 6 C0.67 4.02 0.34 2.04 0 0 Z " fill="#AB7053" transform="translate(150,64)"/>
<path d="M0 0 C0.66 0 1.32 0 2 0 C0.125 6.75 0.125 6.75 -1 9 C-4.82946843 7.54744301 -6.12050295 5.57104439 -8 2 C-7.01 2 -6.02 2 -5 2 C-4.67 3.32 -4.34 4.64 -4 6 C-3.01 5.67 -2.02 5.34 -1 5 C-0.67 3.35 -0.34 1.7 0 0 Z " fill="#D3D2D9" transform="translate(66,53)"/>
<path d="M0 0 C0.66 0.33 1.32 0.66 2 1 C2 4.63 2 8.26 2 12 C1.01 12.33 0.02 12.66 -1 13 C-0.67 8.71 -0.34 4.42 0 0 Z " fill="#D4CFDC" transform="translate(101,140)"/>
<path d="M0 0 C1.32 0.33 2.64 0.66 4 1 C4 3.97 4 6.94 4 10 C3.67 10 3.34 10 3 10 C2.67 8.02 2.34 6.04 2 4 C1.67 4.66 1.34 5.32 1 6 C-1.31 5.67 -3.62 5.34 -6 5 C-2.25 3.875 -2.25 3.875 0 5 C0 3.35 0 1.7 0 0 Z " fill="#B1B2C0" transform="translate(80,142)"/>
<path d="M0 0 C2.875 -0.125 2.875 -0.125 6 0 C6.66 0.66 7.32 1.32 8 2 C7.625 4.125 7.625 4.125 7 6 C3.535 4.02 3.535 4.02 0 2 C0 1.34 0 0.68 0 0 Z " fill="#683F1F" transform="translate(91,107)"/>
<path d="M0 0 C1.5625 1.125 1.5625 1.125 3 3 C2.6875 6.1875 2.6875 6.1875 2 9 C1.01 9 0.02 9 -1 9 C-1.09765625 2.84765625 -1.09765625 2.84765625 -1 1 C-0.67 0.67 -0.34 0.34 0 0 Z " fill="#443A2C" transform="translate(86,87)"/>
<path d="M0 0 C2.64 0 5.28 0 8 0 C8 0.99 8 1.98 8 3 C5.36 3.33 2.72 3.66 0 4 C0 2.68 0 1.36 0 0 Z " fill="#E9E9EF" transform="translate(86,58)"/>
<path d="M0 0 C2.31 0 4.62 0 7 0 C7 0.99 7 1.98 7 3 C6.01 2.67 5.02 2.34 4 2 C4.33 3.65 4.66 5.3 5 7 C2.5 5.1875 2.5 5.1875 0 3 C0 2.01 0 1.02 0 0 Z " fill="#AF8B79" transform="translate(51,55)"/>
<path d="M0 0 C3.3 0 6.6 0 10 0 C10.33 0.66 10.66 1.32 11 2 C7.95699684 3.52150158 5.345915 3.23899393 2 3 C1.34 2.01 0.68 1.02 0 0 Z " fill="#AD6131" transform="translate(91,156)"/>
<path d="M0 0 C0.33 0.66 0.66 1.32 1 2 C3.64 2 6.28 2 9 2 C9 2.33 9 2.66 9 3 C6.03 3.66 3.06 4.32 0 5 C0 7.97 0 10.94 0 14 C-0.33 14 -0.66 14 -1 14 C-1.02685938 11.85423363 -1.04633088 9.70837355 -1.0625 7.5625 C-1.07410156 6.36753906 -1.08570312 5.17257813 -1.09765625 3.94140625 C-1 1 -1 1 0 0 Z " fill="#A98272" transform="translate(90,136)"/>
<path d="M0 0 C0.93065133 2.60582371 1.14917407 3.64198224 0.0625 6.25 C-0.4634375 7.11625 -0.4634375 7.11625 -1 8 C-2.875 7.6875 -2.875 7.6875 -5 7 C-5.66 6.01 -6.32 5.02 -7 4 C-6.030625 3.71125 -5.06125 3.4225 -4.0625 3.125 C-0.89335797 2.35785318 -0.89335797 2.35785318 0 0 Z " fill="#CCCBD8" transform="translate(121,129)"/>
<path d="M0 0 C0 0.66 0 1.32 0 2 C0.99 2 1.98 2 3 2 C3 2.66 3 3.32 3 4 C-4.75 4.125 -4.75 4.125 -7 3 C-7 2.34 -7 1.68 -7 1 C-2.25 0 -2.25 0 0 0 Z " fill="#B9B7B4" transform="translate(88,116)"/>
<path d="M0 0 C0.66 0.66 1.32 1.32 2 2 C1.625 5.625 1.625 5.625 1 9 C1.66 9.33 2.32 9.66 3 10 C1.35 10.33 -0.3 10.66 -2 11 C-1.85957123 9.35369672 -1.71250671 7.70795821 -1.5625 6.0625 C-1.48128906 5.14597656 -1.40007812 4.22945313 -1.31640625 3.28515625 C-1 1 -1 1 0 0 Z " fill="#C1B6A7" transform="translate(108,116)"/>
<path d="M0 0 C1.79158489 -0.02696365 3.58328473 -0.04637917 5.375 -0.0625 C6.37273437 -0.07410156 7.37046875 -0.08570312 8.3984375 -0.09765625 C11 0 11 0 13 1 C13 1.66 13 2.32 13 3 C9.7 2.34 6.4 1.68 3 1 C3 1.66 3 2.32 3 3 C2.01 3 1.02 3 0 3 C0 2.01 0 1.02 0 0 Z " fill="#E2CFC0" transform="translate(82,113)"/>
<path d="M0 0 C0.53560547 0.98226562 0.53560547 0.98226562 1.08203125 1.984375 C2.90299431 4.32434604 2.90299431 4.32434604 6.13671875 4.390625 C7.89435547 4.32101563 7.89435547 4.32101563 9.6875 4.25 C10.86699219 4.21390625 12.04648438 4.1778125 13.26171875 4.140625 C14.16535156 4.09421875 15.06898437 4.0478125 16 4 C13.22957891 6.77042109 11.23466195 6.39796106 7.375 6.625 C6.18648438 6.69976562 4.99796875 6.77453125 3.7734375 6.8515625 C2.40058594 6.92503906 2.40058594 6.92503906 1 7 C0.67 4.69 0.34 2.38 0 0 Z " fill="#DECCBD" transform="translate(92,83)"/>
<path d="M0 0 C4.875 0.875 4.875 0.875 6 2 C7.51469448 2.23192865 9.03754562 2.41215238 10.5625 2.5625 C11.38878906 2.64628906 12.21507813 2.73007813 13.06640625 2.81640625 C13.70449219 2.87699219 14.34257813 2.93757812 15 3 C15 3.33 15 3.66 15 4 C4.84682713 4.63019694 4.84682713 4.63019694 1.3125 2 C0.879375 1.34 0.44625 0.68 0 0 Z " fill="#A67A63" transform="translate(87,156)"/>
<path d="M0 0 C1.65 0 3.3 0 5 0 C5 0.66 5 1.32 5 2 C4.01 2 3.02 2 2 2 C3.39195915 4.7839183 5.15575779 4.97898997 8 6 C5.39417629 6.93065133 4.35801776 7.14917407 1.75 6.0625 C1.1725 5.711875 0.595 5.36125 0 5 C0 3.35 0 1.7 0 0 Z " fill="#C8C1C8" transform="translate(72,135)"/>
<path d="M0 0 C-0.33 0.66 -0.66 1.32 -1 2 C0.32 2.66 1.64 3.32 3 4 C2.01 4.495 2.01 4.495 1 5 C0.67 5.99 0.34 6.98 0 8 C-0.433125 7.236875 -0.86625 6.47375 -1.3125 5.6875 C-2.73686785 3.41906232 -4.03260097 1.7800277 -6 0 C-2.25 -1.125 -2.25 -1.125 0 0 Z " fill="#B6B0BB" transform="translate(108,134)"/>
<path d="M0 0 C1.24546405 2.49092811 0.7767578 3.41080733 0 6 C0.66 6.33 1.32 6.66 2 7 C1.34 7 0.68 7 0 7 C-0.66 8.32 -1.32 9.64 -2 11 C-2.99 10.01 -3.98 9.02 -5 8 C-4.34 7.67 -3.68 7.34 -3 7 C-2.29618843 5.01276732 -1.6288189 3.01222047 -1 1 C-0.67 0.67 -0.34 0.34 0 0 Z " fill="#CAB9A5" transform="translate(81,113)"/>
<path d="M0 0 C0.33 0.66 0.66 1.32 1 2 C3.31 2 5.62 2 8 2 C8 2.66 8 3.32 8 4 C2.06 4.495 2.06 4.495 -4 5 C-2 1 -2 1 0 0 Z " fill="#D99B61" transform="translate(85,102)"/>
<path d="M0 0 C3.63 0.33 7.26 0.66 11 1 C10.67 1.66 10.34 2.32 10 3 C6.7 3 3.4 3 0 3 C0 2.01 0 1.02 0 0 Z " fill="#CFCAD8" transform="translate(122,79)"/>
<path d="M0 0 C0.33 1.32 0.66 2.64 1 4 C-1.64 4 -4.28 4 -7 4 C-7.33 5.32 -7.66 6.64 -8 8 C-8 6.35 -8 4.7 -8 3 C-5.36 2.01 -2.72 1.02 0 0 Z " fill="#DAA470" transform="translate(103,90)"/>
<path d="M0 0 C0.33 1.32 0.66 2.64 1 4 C-3.30769231 7.07692308 -3.30769231 7.07692308 -6.8125 6.6875 C-7.534375 6.460625 -8.25625 6.23375 -9 6 C-9 5.34 -9 4.68 -9 4 C-6.36 3.67 -3.72 3.34 -1 3 C-0.67 2.01 -0.34 1.02 0 0 Z " fill="#B0673D" transform="translate(156,77)"/>
<path d="M0 0 C2.97 0.495 2.97 0.495 6 1 C5.67 1.66 5.34 2.32 5 3 C4.01 2.67 3.02 2.34 2 2 C2 3.65 2 5.3 2 7 C2.66 7 3.32 7 4 7 C3.67 7.99 3.34 8.98 3 10 C0.59185923 6.48812804 -0.36629408 4.27343092 0 0 Z " fill="#A17D75" transform="translate(141,73)"/>
<path d="M0 0 C2.86724686 0.57344937 3.8614515 0.8614515 6 3 C6 3.99 6 4.98 6 6 C4.35 5.67 2.7 5.34 1 5 C0.67 3.35 0.34 1.7 0 0 Z " fill="#B26D3F" transform="translate(95,70)"/>
<path d="M0 0 C1.88391785 3.26545761 2.49287967 6.28111761 3 10 C1.68 9.67 0.36 9.34 -1 9 C-2.0326802 6.21176345 -2.04509293 5.1322726 -1.0625 2.25 C-0.711875 1.5075 -0.36125 0.765 0 0 Z " fill="#ECBA8C" transform="translate(105,95)"/>
<path d="M0 0 C2.5 2.0625 2.5 2.0625 5 5 C5.3125 8.8125 5.3125 8.8125 5 12 C3.20931427 9.3139714 2.33944209 7.3373411 1.375 4.3125 C1.11460938 3.50425781 0.85421875 2.69601563 0.5859375 1.86328125 C0.39257812 1.24839844 0.19921875 0.63351563 0 0 Z " fill="#AC8E80" transform="translate(31,72)"/>
<path d="M0 0 C-0.3125 1.875 -0.3125 1.875 -1 4 C-1.99 4.66 -2.98 5.32 -4 6 C-4 5.34 -4 4.68 -4 4 C-5.32 4.33 -6.64 4.66 -8 5 C-8 4.34 -8 3.68 -8 3 C-5.09451118 0.95830515 -3.59857954 0 0 0 Z " fill="#B96A3D" transform="translate(126,55)"/>
<path d="M0 0 C2.375 -0.125 2.375 -0.125 5 0 C7 2 7 2 7 5 C4.36 4.67 1.72 4.34 -1 4 C-1 3.67 -1 3.34 -1 3 C0.65 3 2.3 3 4 3 C4 2.34 4 1.68 4 1 C2.68 0.67 1.36 0.34 0 0 Z " fill="#A2725D" transform="translate(78,132)"/>
<path d="M0 0 C1.65 0 3.3 0 5 0 C5.33 1.65 5.66 3.3 6 5 C4.02 4.34 2.04 3.68 0 3 C0 2.01 0 1.02 0 0 Z " fill="#D5D9EA" transform="translate(152,64)"/>
<path d="M0 0 C0.33 0.99 0.66 1.98 1 3 C4.0745356 2.2236068 4.0745356 2.2236068 6 0 C5.67 1.98 5.34 3.96 5 6 C3.35 5.67 1.7 5.34 0 5 C0 3.35 0 1.7 0 0 Z " fill="#9D7B6F" transform="translate(62,149)"/>
<path d="M0 0 C1.65 0 3.3 0 5 0 C4.67 1.65 4.34 3.3 4 5 C2.68 4.67 1.36 4.34 0 4 C0 2.68 0 1.36 0 0 Z " fill="#915E35" transform="translate(104,108)"/>
<path d="M0 0 C1.65 0 3.3 0 5 0 C5 1.98 5 3.96 5 6 C4.01 6.495 4.01 6.495 3 7 C3 5.68 3 4.36 3 3 C2.01 3 1.02 3 0 3 C0 2.01 0 1.02 0 0 Z " fill="#9F9280" transform="translate(86,81)"/>
<path d="M0 0 C0.66 0 1.32 0 2 0 C2 0.66 2 1.32 2 2 C2.66 2.33 3.32 2.66 4 3 C3.01 3 2.02 3 1 3 C1 4.65 1 6.3 1 8 C0.67 6.68 0.34 5.36 0 4 C-1.65 3.67 -3.3 3.34 -5 3 C-5 2.67 -5 2.34 -5 2 C-3.35 2 -1.7 2 0 2 C0 1.34 0 0.68 0 0 Z " fill="#BBB0B7" transform="translate(147,70)"/>
<path d="M0 0 C0.99 0 1.98 0 3 0 C3 2.97 3 5.94 3 9 C2.34 9 1.68 9 1 9 C0.67 6.03 0.34 3.06 0 0 Z " fill="#C56C2D" transform="translate(63,66)"/>
<path d="M0 0 C2.31 0.33 4.62 0.66 7 1 C7 1.66 7 2.32 7 3 C5.68 3 4.36 3 3 3 C2.67 3.66 2.34 4.32 2 5 C1.34 4.67 0.68 4.34 0 4 C0 2.68 0 1.36 0 0 Z " fill="#BA6F3E" transform="translate(60,63)"/>
<path d="M0 0 C2.97 0 5.94 0 9 0 C5.99382731 3.00617269 3.17618402 2.59585316 -1 3 C-0.67 2.01 -0.34 1.02 0 0 Z " fill="#B4642E" transform="translate(92,135)"/>
<path d="M0 0 C0 2.64 0 5.28 0 8 C-0.66 8 -1.32 8 -2 8 C-2.33 5.69 -2.66 3.38 -3 1 C-1 0 -1 0 0 0 Z " fill="#FBF9FA" transform="translate(104,64)"/>
<path d="M0 0 C0.66 0 1.32 0 2 0 C1.67 1.98 1.34 3.96 1 6 C0.01 6 -0.98 6 -2 6 C-1.125 1.125 -1.125 1.125 0 0 Z " fill="#9A8F7F" transform="translate(112,89)"/>
<path d="M0 0 C1.32 0.33 2.64 0.66 4 1 C4 2.32 4 3.64 4 5 C2.68 5 1.36 5 0 5 C0 3.35 0 1.7 0 0 Z " fill="#B56232" transform="translate(143,75)"/>
<path d="M0 0 C0.66 0 1.32 0 2 0 C1.6875 2.875 1.6875 2.875 1 6 C0.01 6.66 -0.98 7.32 -2 8 C-1.125 1.125 -1.125 1.125 0 0 Z " fill="#C16D36" transform="translate(69,55)"/>
<path d="M0 0 C2.31 0 4.62 0 7 0 C7 0.66 7 1.32 7 2 C7.66 2.33 8.32 2.66 9 3 C6.03 2.67 3.06 2.34 0 2 C0 1.34 0 0.68 0 0 Z " fill="#CFD4E0" transform="translate(68,127)"/>
<path d="M0 0 C0.66 0 1.32 0 2 0 C2.33 1.65 2.66 3.3 3 5 C1.35 4.67 -0.3 4.34 -2 4 C-1.34 2.68 -0.68 1.36 0 0 Z " fill="#D4CCC6" transform="translate(100,119)"/>
<path d="M0 0 C0.66 0 1.32 0 2 0 C2.33 2.31 2.66 4.62 3 7 C1.68 6.67 0.36 6.34 -1 6 C-0.67 4.02 -0.34 2.04 0 0 Z " fill="#E6BF9B" transform="translate(110,106)"/>
<path d="M0 0 C1.46726798 3.81489674 0.43336419 6.29011622 -1 10 C-1.66 10 -2.32 10 -3 10 C-2.49287967 6.28111761 -1.88391785 3.26545761 0 0 Z " fill="#C7B19A" transform="translate(77,96)"/>
<path d="M0 0 C1.98 0 3.96 0 6 0 C6 0.99 6 1.98 6 3 C4.02 3 2.04 3 0 3 C0 2.01 0 1.02 0 0 Z " fill="#B3734F" transform="translate(46,79)"/>
<path d="M0 0 C4.875 1.75 4.875 1.75 6 4 C4.02 4 2.04 4 0 4 C0 2.68 0 1.36 0 0 Z " fill="#CCC6D4" transform="translate(121,149)"/>
<path d="M0 0 C2.4375 0.8125 2.4375 0.8125 5 2 C5.33 2.99 5.66 3.98 6 5 C4.35 4.67 2.7 4.34 1 4 C0.67 2.68 0.34 1.36 0 0 Z " fill="#B85D1D" transform="translate(124,146)"/>
<path d="M0 0 C1.32 0.33 2.64 0.66 4 1 C3.67 2.32 3.34 3.64 3 5 C2.01 4.67 1.02 4.34 0 4 C0 2.68 0 1.36 0 0 Z " fill="#4C4945" transform="translate(103,119)"/>
<path d="M0 0 C0.66 0 1.32 0 2 0 C2 0.66 2 1.32 2 2 C2.66 2 3.32 2 4 2 C4 2.66 4 3.32 4 4 C2.35 4.33 0.7 4.66 -1 5 C-0.67 3.35 -0.34 1.7 0 0 Z " fill="#AA8C73" transform="translate(98,114)"/>
<path d="M0 0 C0.33 0.66 0.66 1.32 1 2 C1.99 2.33 2.98 2.66 4 3 C3.34 4.32 2.68 5.64 2 7 C1.34 7 0.68 7 0 7 C0 4.69 0 2.38 0 0 Z " fill="#BEAC91" transform="translate(109,93)"/>
<path d="M0 0 C-0.33 1.65 -0.66 3.3 -1 5 C-1.66 4.67 -2.32 4.34 -3 4 C-2.67 3.01 -2.34 2.02 -2 1 C-3.32 0.67 -4.64 0.34 -6 0 C-3.50907189 -1.24546405 -2.58919267 -0.7767578 0 0 Z " fill="#A3918D" transform="translate(54,78)"/>
<path d="M0 0 C1.32 0.33 2.64 0.66 4 1 C3.34 2.65 2.68 4.3 2 6 C1.34 5.67 0.68 5.34 0 5 C0 3.35 0 1.7 0 0 Z " fill="#F8F7F2" transform="translate(88,71)"/>
<path d="M0 0 C0.66 0 1.32 0 2 0 C2.66 1.98 3.32 3.96 4 6 C2.68 6 1.36 6 0 6 C0 4.02 0 2.04 0 0 Z " fill="#C7692F" transform="translate(82,60)"/>
<path d="M0 0 C1.32 0.33 2.64 0.66 4 1 C4 2.32 4 3.64 4 5 C3.01 5 2.02 5 1 5 C0.67 3.35 0.34 1.7 0 0 Z " fill="#BA7142" transform="translate(55,57)"/>
</svg>
